<?xml version="1.0" encoding="utf-8"?>

<svg  version="1.1" width="1000" height="700"
	 onmousedown="popResults(evt)" onmouseover="showName(evt)" onload="loadResults()" viewBox="0 0 1000 700" overflow="visible" xml:space="preserve"> 



<polygon id="262" fill="#D6D5CC" stroke="#000000" points="796.832,385.125 796.248,385.125 778.039,384.061 777.938,384.061 
	777.938,384.542 777.748,384.834 777.555,385.027 777.164,385.42 776.971,385.52 776.68,385.42 776.58,385.23 776.096,384.936 
	775.801,384.936 775.51,385.04 775.318,385.143 775.12,385.143 774.928,385.333 774.734,385.521 774.635,385.625 774.444,385.729 
	774.444,385.825 774.342,386.118 774.243,386.313 774.052,386.409 773.86,386.409 773.671,386.313 773.566,386.209 773.467,386.109 
	773.365,386.109 773.266,386.209 773.074,386.313 772.883,386.313 773.175,385.729 773.175,385.436 773.276,385.241 
	773.276,385.143 773.378,385.042 773.477,384.852 773.58,384.75 773.769,384.559 773.873,384.363 773.973,384.266 774.163,383.975 
	774.354,383.682 774.255,383.488 774.151,383.488 773.963,383.389 773.288,383.389 773.184,383.288 773.084,382.995 772.98,382.893 
	772.881,382.792 772.881,382.691 772.98,382.499 773.084,382.398 773.184,382.301 773.288,382.105 773.288,381.721 773.184,381.62 
	773.084,381.521 772.893,381.422 772.792,381.422 772.5,381.318 772.309,381.318 772.117,381.129 772.014,381.027 771.916,380.922 
	771.813,380.825 771.813,380.723 771.916,380.532 772.014,380.432 772.117,380.139 772.117,379.947 772.014,379.848 
	772.117,379.657 772.218,379.461 772.117,379.461 772.014,379.363 772.014,379.264 771.824,379.163 771.533,379.264 771.24,378.971 
	771.139,378.779 771.039,378.678 771.039,378.486 771.139,378.292 770.949,378.396 770.949,378.197 770.757,378.096 
	770.656,378.096 770.362,377.995 770.173,377.805 769.588,377.805 769.396,377.904 769.297,378 769.104,378.105 769.004,378 
	769.004,377.333 768.902,377.229 768.902,377.125 768.712,376.936 768.432,376.654 768.445,376.643 768.248,376.282 
	768.054,376.184 767.866,376.184 767.675,375.988 767.48,375.801 767.382,375.697 767.282,375.51 766.505,375.025 766.112,374.732 
	765.821,374.543 765.237,374.25 764.942,374.057 764.548,373.959 764.256,373.959 764.063,374.057 763.771,374.25 763.581,374.348 
	763.097,374.348 762.614,374.25 762.323,374.148 761.841,374.047 761.549,373.945 761.355,373.844 761.165,373.652 761.063,373.553 
	761.165,373.454 761.165,373.352 761.266,373.059 761.458,372.577 761.458,372.092 761.355,371.7 761.165,371.407 760.874,371.116 
	760.29,371.014 759.896,370.915 759.311,370.811 758.918,370.811 758.521,370.915 758.133,370.915 757.84,371.014 757.448,371.206 
	757.154,371.395 756.672,371.395 756.569,371.206 756.569,370.915 756.467,370.52 756.467,369.732 756.569,369.441 756.569,369.047 
	756.758,368.754 756.862,367.979 756.862,366.811 756.566,366.329 756.275,365.934 756.087,365.35 756.087,364.271 755.983,363.688 
	756.087,363.292 756.087,363 756.194,362.223 756.099,361.93 755.994,361.45 755.806,360.961 755.515,360.575 755.221,360.471 
	755.027,360.368 754.545,360.368 754.251,360.268 754.15,360.368 753.667,361.145 753.479,360.952 753.283,360.952 753.283,361.135 
	753.388,361.327 753.388,361.516 753.488,361.62 753.488,361.719 753.585,361.911 753.779,362.012 753.877,362.113 753.877,362.404 
	753.195,362.404 752.903,362.303 752.611,362.303 752.319,362.404 751.938,362.404 751.743,362.504 751.645,362.697 751.54,362.799 
	751.54,363.282 751.645,363.383 751.743,363.482 751.844,363.584 751.844,363.686 751.362,363.686 751.26,363.877 751.159,364.07 
	751.159,364.26 751.06,364.361 750.866,364.461 750.676,364.361 750.777,364.168 750.777,363.977 750.876,363.788 750.777,363.686 
	750.676,363.686 750.574,363.788 750.476,363.788 750.371,363.977 750.371,364.081 750.079,364.081 750.079,363.885 
	749.786,363.885 749.786,364.081 749.688,364.27 749.688,364.95 749.584,365.047 749.484,365.047 749.192,364.95 748.9,364.95 
	748.801,365.047 748.696,365.047 748.598,365.243 748.403,365.534 748.403,365.631 748.508,365.827 748.8,366.118 748.987,366.309 
	749.092,366.411 749.514,366.411 749.514,366.598 749.409,366.702 749.409,366.893 749.313,367.083 749.313,367.186 
	749.211,367.374 749.108,367.564 749.008,367.667 748.717,367.667 748.523,367.77 748.717,367.958 748.905,367.958 749.196,368.061 
	749.301,368.061 749.399,368.249 749.503,368.354 749.503,368.445 749.399,368.734 749.301,368.836 749.108,369.127 
	748.917,369.318 748.815,369.616 748.917,370.004 748.815,370.396 748.717,370.588 748.523,370.784 748.131,371.077 
	747.938,371.172 747.646,371.172 747.456,371.273 747.456,372.051 747.267,372.245 746.683,372.245 746.58,372.342 746.39,372.538 
	746.129,372.725 745.838,372.825 745.544,372.922 745.253,372.922 745.061,373.118 745.161,373.215 744.972,373.316 
	744.972,373.417 744.679,373.417 744.487,373.52 743.903,373.52 743.803,373.624 743.407,373.811 743.308,373.811 743.208,374 
	743.104,374.104 743.104,374.208 742.813,374.208 742.712,374.104 742.712,374 742.521,373.9 742.419,373.9 742.32,374 
	742.219,374.104 742.116,374.208 742.017,374.395 742.017,374.499 741.724,374.688 741.523,374.688 741.129,374.499 
	740.939,374.395 740.455,374.395 740.354,374.292 740.063,374.104 739.871,374.104 739.683,374 739.578,374 739.578,373.814 
	739.287,373.814 739.287,373.915 739.188,374.018 739.188,374.118 739.084,374.309 739.084,374.411 738.887,374.411 
	738.592,374.309 738.492,374.206 738.199,374.107 738.005,374.107 737.713,374.206 737.524,374.309 737.421,374.309 
	737.231,374.206 737.129,374.206 737.129,374.309 737.03,374.411 736.93,374.516 736.737,374.609 736.535,374.609 736.438,374.711 
	736.438,374.911 736.535,375.01 736.535,375.303 736.438,375.402 736.336,375.504 736.232,375.504 736.044,375.698 735.94,375.797 
	735.752,375.896 735.648,375.896 735.648,376.198 735.844,376.389 736.034,376.581 736.134,376.77 736.325,376.961 736.427,377.152 
	736.427,377.547 736.325,377.838 736.427,378.131 736.427,378.422 736.524,378.521 736.524,378.813 736.427,379.006 
	736.427,379.104 736.325,379.209 736.223,379.499 736.034,379.688 736.034,380.292 735.93,380.482 735.639,380.773 735.346,380.965 
	735.156,381.066 734.479,381.066 734.379,381.258 734.379,381.549 734.481,381.749 734.585,381.938 734.585,382.521 
	734.481,382.713 734.382,382.902 734.189,383.094 734.189,383.779 734.773,384.364 734.967,384.364 735.157,384.559 
	735.348,384.852 735.348,385.532 735.248,385.729 735.145,385.918 735.047,386.107 735.047,386.299 734.947,386.59 734.843,386.691 
	734.655,386.691 734.551,386.795 734.363,386.795 734.259,386.691 734.161,386.795 734.161,386.896 734.259,386.995 
	734.363,387.096 734.363,387.198 734.551,387.299 734.745,387.491 734.844,387.59 734.948,387.693 735.047,387.883 735.047,388.075 
	735.146,388.264 735.047,388.456 734.948,388.848 734.844,389.04 734.656,389.143 734.362,389.243 734.071,389.346 733.775,389.346 
	733.484,389.445 733.191,389.445 732.798,389.346 732.607,389.243 732.41,389.243 732.215,389.538 732.117,389.727 732.117,391.188 
	731.922,391.773 731.631,392.549 731.533,392.84 731.241,392.84 731.138,392.739 731.036,392.739 730.845,392.639 730.657,392.739 
	730.461,392.84 730.364,392.943 730.169,393.043 729.98,393.146 729.79,393.336 729.596,393.527 729.012,393.717 728.622,394.2 
	728.428,394.395 728.239,394.584 727.947,394.877 727.655,395.064 727.362,395.168 727.067,395.27 726.878,395.459 726.587,395.646 
	726.191,395.941 725.8,396.234 725.61,396.428 725.315,396.719 725.024,396.909 724.731,397.098 724.339,397.391 723.945,397.491 
	723.755,397.596 723.463,397.889 722.977,398.18 722.686,398.473 722.498,398.661 722.305,398.956 722.404,399.145 722.696,399.438 
	722.889,399.631 722.889,400.508 722.789,400.799 722.597,401.092 722.403,401.481 722.215,401.877 721.63,402.266 721.168,402.637 
	721.154,402.641 721.156,402.647 721.143,402.657 721.159,402.653 721.325,403.079 721.287,403.079 721.125,402.665 
	720.933,402.374 720.74,402.081 720.552,401.893 720.448,401.79 720.259,401.692 719.864,401.399 719.57,401.206 719.382,401.108 
	719.09,400.815 718.986,400.717 718.798,400.231 718.694,399.94 718.694,399.454 718.593,399.161 718.495,398.682 718.3,398.391 
	717.909,398.1 717.618,397.997 717.034,397.898 716.547,397.799 716.064,397.402 715.874,397.012 715.683,396.717 715.581,396.232 
	715.683,395.646 715.683,395.168 715.782,394.686 715.782,394.008 715.594,393.715 715.49,393.521 715.39,393.521 715.29,392.938 
	715.188,392.75 715.087,392.559 714.895,392.264 714.895,391.771 714.602,391.288 714.413,391.1 714.221,390.909 713.829,390.516 
	713.637,390.32 713.446,389.838 713.053,389.646 712.86,389.254 712.671,389.063 712.568,388.872 712.568,388.393 712.671,388.198 
	712.771,387.609 712.964,386.93 713.064,386.734 713.064,386.547 713.163,386.355 713.357,385.963 713.548,385.566 713.548,384.795 
	713.256,384.209 713.256,384.018 712.86,383.534 712.671,383.342 712.568,382.95 712.467,382.555 712.175,382.072 711.984,381.678 
	711.796,381.488 711.503,381.195 711.31,381.004 711.018,380.713 710.917,380.42 710.626,380.127 710.332,380.127 709.646,380.027 
	709.152,380.027 709.052,379.926 709.052,379.827 708.954,379.827 708.954,379.727 708.85,379.434 708.749,379.331 708.652,379.23 
	708.549,379.127 708.361,379.027 708.165,378.926 708.068,378.734 707.964,378.635 707.865,378.342 707.67,378.241 707.573,378.241 
	707.281,377.948 707.182,377.846 707.182,377.553 707.281,377.553 707.281,377.452 707.38,377.354 707.281,376.959 707.182,376.855 
	707.078,376.758 706.981,376.758 706.786,376.564 706.598,376.465 706.405,376.174 706.21,376.07 706.021,375.969 705.729,375.868 
	705.625,375.77 705.729,375.581 705.828,375.385 705.828,375.094 705.729,374.991 705.729,374.793 705.917,374.602 705.917,374.4 
	705.82,374.209 705.719,374.02 705.907,373.727 706.038,373.551 706.274,373.629 706.466,373.436 706.667,373.436 706.856,373.336 
	706.959,373.234 707.06,373.137 707.06,372.641 706.959,372.45 706.959,372.35 706.757,372.35 706.658,372.542 706.466,372.641 
	706.274,372.743 706.173,372.641 706.173,372.247 706.073,372.148 705.58,372.148 705.58,372.047 705.682,371.855 705.783,371.663 
	705.783,371.564 705.482,371.564 705.29,371.461 705.389,371.359 705.493,371.258 705.682,371.066 705.682,370.967 705.582,370.967 
	705.291,370.868 705.191,370.766 705.087,370.766 704.988,370.665 704.988,370.375 704.888,370.184 704.784,369.995 
	704.685,369.803 704.292,369.803 704.188,369.702 704.091,369.512 703.888,369.512 703.791,369.407 703.597,369.309 
	703.303,369.118 703.303,369.016 703.207,368.915 703.104,368.813 703.003,368.813 703.003,368.915 702.904,369.105 702.8,369.105 
	702.8,369.006 702.7,368.904 702.6,368.803 702.7,368.702 702.7,368.318 702.8,368.125 702.8,367.645 702.7,367.352 702.7,366.87 
	702.8,366.575 702.7,366.385 702.408,366.284 702.216,366.184 701.922,365.991 701.734,365.801 701.63,365.7 701.532,365.51 
	701.239,365.217 700.947,364.926 700.846,364.633 700.743,364.342 700.555,364.146 700.451,364.146 700.351,363.956 700.25,363.766 
	700.148,363.766 699.959,363.665 699.855,363.475 699.665,363.372 699.564,363.27 699.374,363.081 699.183,363.081 698.99,362.977 
	698.508,362.586 698.319,362.295 698.319,362.191 698.027,362.002 697.923,361.9 697.821,361.797 697.63,361.504 697.53,361.407 
	697.237,361.211 697.237,361.014 697.138,360.825 697.138,360.631 697.237,360.529 697.337,360.529 697.441,360.43 697.539,360.329 
	697.64,360.329 697.64,360.229 697.743,360.329 697.931,360.137 697.931,360.036 697.743,359.936 697.64,359.834 697.743,359.732 
	697.84,359.631 698.327,359.631 698.327,359.439 698.426,359.25 698.529,359.148 698.63,358.958 698.63,358.667 698.729,358.563 
	698.922,358.374 699.113,358.182 699.214,357.891 699.113,357.7 699.214,357.596 699.505,357.596 699.605,357.497 699.798,357.395 
	699.896,357.293 700,357.104 700.235,357.104 700.339,357.293 700.438,357.191 700.538,357.092 700.642,356.898 700.538,356.799 
	700.538,356.6 700.755,356.6 700.948,356.5 701.079,356.5 701.079,355.313 700.979,355.209 700.878,355.209 700.688,355.105 
	700.586,355.105 700.586,354.717 700.688,354.521 700.586,354.521 700.586,354.426 700.294,354.323 700.192,354.323 
	700.001,354.133 699.9,354.032 699.71,353.93 699.607,353.829 699.407,353.627 699.307,353.525 699.106,353.525 699.005,353.426 
	699.005,353.135 699.106,353.135 699.296,352.941 699.396,352.842 699.396,352.736 699.501,352.641 699.598,352.443 699.71,352.277 
	699.606,352.176 699.508,352.176 699.508,352.077 699.606,351.975 699.71,351.975 699.809,351.872 699.809,351.771 699.911,351.771 
	699.911,351.581 699.809,351.479 699.71,351.377 699.314,351.377 699.314,351.277 699.214,351.178 699.214,350.975 699.314,350.875 
	699.605,350.875 699.709,350.771 699.709,350.18 699.516,350.077 699.516,350.268 699.416,350.168 699.516,350.066 699.516,349.877 
	699.616,349.773 699.719,349.676 699.719,349.572 699.616,349.471 699.516,349.368 699.416,349.368 699.313,349.271 
	699.213,348.977 699.111,348.977 699.01,348.877 698.911,348.775 698.911,348.674 698.809,348.57 699.202,348.57 699.302,348.674 
	699.495,348.674 699.593,348.775 699.795,348.775 699.795,348.482 699.696,348.482 699.592,348.381 699.494,348.381 
	699.494,348.277 699.592,348.182 699.696,348.182 699.795,348.079 699.795,347.979 699.696,347.879 699.696,347.678 
	699.795,347.577 699.696,347.475 699.696,347.374 699.592,347.271 699.494,347.174 699.294,347.174 699.192,347.072 699.192,346.87 
	699.786,346.87 699.786,346.77 699.885,346.77 699.885,346.668 699.786,346.668 699.786,346.566 699.686,346.467 699.686,346.361 
	699.494,346.174 699.494,345.775 699.391,345.674 699.292,345.57 699.292,345.469 699.391,345.178 699.494,345.178 699.592,344.986 
	699.592,344.885 699.494,344.786 699.391,344.688 699.192,344.688 699.192,344.584 699.09,344.48 698.99,344.381 698.99,344.088 
	698.889,343.986 698.889,343.795 698.99,343.504 699.179,343.402 699.078,343.402 699.078,343.303 699.179,343.303 699.179,343.206 
	699.078,343.102 698.879,343.102 698.879,342.902 698.779,342.803 698.678,342.803 698.678,342.609 698.488,342.219 698.386,342.12 
	698.284,342.12 698.183,342.016 697.984,342.016 697.79,341.827 697.79,341.723 697.692,341.536 697.589,341.432 697.286,341.432 
	697.19,341.327 697.091,341.327 696.987,341.139 696.889,340.95 696.889,340.846 696.792,340.659 696.792,340.368 696.499,339.881 
	696.598,339.687 696.896,339.687 696.994,339.589 696.896,339.491 696.798,339.395 696.694,339.297 696.596,339.297 
	696.498,339.199 696.596,339.103 696.596,339.005 696.694,338.907 696.795,338.907 697.184,338.813 697.286,338.813 
	697.577,338.521 697.577,338.423 697.475,338.326 697.372,338.229 697.184,338.131 696.992,338.035 696.992,337.839 
	697.092,337.547 697.194,337.353 697.297,337.158 697.396,336.963 697.496,336.865 697.601,336.67 697.496,336.476 697.396,336.378 
	697.297,336.281 696.902,335.892 696.799,335.697 696.699,335.697 696.408,335.6 696.115,335.502 695.72,335.405 695.327,335.308 
	694.844,335.21 694.45,335.113 694.159,335.016 693.372,335.016 693.08,334.918 692.981,334.724 692.88,334.529 692.88,334.432 
	692.689,334.432 692.587,334.334 692.485,334.236 692.386,334.042 692.283,333.75 692.182,333.652 691.989,333.458 691.891,333.263 
	691.891,332.874 691.989,332.775 691.989,332.483 692.093,332.191 692.093,331.899 691.989,331.607 691.891,331.315 
	691.789,331.218 691.688,330.927 691.789,330.731 691.891,330.634 691.989,330.438 691.891,330.244 691.789,330.05 691.789,329.758 
	691.891,329.563 691.891,329.466 691.989,329.271 692.093,329.271 692.192,329.174 692.384,329.076 692.485,328.979 
	692.587,328.784 692.485,328.686 692.384,328.492 692.192,328.297 692.093,328.2 691.901,328.103 691.799,327.81 691.799,327.324 
	691.901,327.129 692.093,326.836 692.093,326.642 691.989,326.544 691.891,326.447 691.69,326.447 691.5,326.35 691.5,326.252 
	691.69,326.057 691.791,325.96 691.893,325.96 692.084,325.863 692.274,325.668 692.375,325.571 692.479,325.571 692.479,325.278 
	692.375,325.084 692.084,324.791 691.983,324.597 691.881,324.402 691.881,324.11 691.983,324.013 692.466,324.013 692.567,323.721 
	692.86,323.526 692.959,323.623 693.252,323.623 693.252,323.429 693.354,323.234 693.545,323.039 693.938,322.552 694.129,322.454 
	694.231,322.26 694.039,322.163 693.747,321.968 693.557,321.773 693.455,321.481 693.557,321.286 693.557,320.118 693.455,319.923 
	693.354,319.534 693.252,319.144 692.667,318.559 692.274,318.365 691.983,318.17 691.69,318.17 691.399,318.267 691.295,318.462 
	691.106,318.657 691.002,318.851 690.814,319.144 690.619,319.436 690.521,319.728 690.419,319.923 690.317,320.02 690.217,320.312 
	690.217,320.507 689.923,320.896 689.339,320.896 689.149,320.799 688.857,320.702 688.17,320.702 687.981,320.799 687.878,320.994 
	687.775,321.286 687.775,321.578 687.586,321.87 687.484,322.065 687.484,322.26 687.386,322.649 687.191,322.844 687.002,322.942 
	686.813,323.039 686.52,323.137 686.229,323.234 685.936,323.526 685.74,323.818 685.644,324.013 685.352,324.305 685.156,324.5 
	684.864,324.695 684.676,324.89 684.485,324.986 684.485,325.083 684.291,325.181 684.101,325.278 683.706,325.375 683.517,325.375 
	683.517,325.473 683.225,325.667 683.122,325.863 683.025,326.057 682.921,326.35 682.82,326.642 682.82,327.129 682.921,327.226 
	683.111,327.81 683.111,328.301 683.014,328.496 682.82,328.885 682.527,329.08 682.335,329.178 682.236,329.373 682.137,329.567 
	682.137,329.859 682.034,330.054 682.034,330.346 681.739,330.736 681.641,331.028 681.349,331.417 681.249,331.808 
	681.145,332.292 681.047,332.877 680.756,333.169 680.463,333.56 680.172,333.754 679.977,333.949 679.684,333.949 679.587,333.852 
	679.587,333.754 679.483,333.56 679.382,333.462 679.089,333.56 678.989,333.56 678.698,333.657 678.505,333.754 678.314,333.852 
	677.921,334.046 677.527,334.144 677.336,334.241 677.146,334.339 676.957,334.436 676.854,334.534 676.752,334.63 676.651,334.826 
	676.651,335.312 676.843,335.41 677.034,335.799 677.034,335.994 676.843,336.091 676.651,336.091 676.552,336.188 676.45,336.286 
	676.259,336.479 676.068,336.578 675.966,336.674 675.673,336.772 675.281,336.968 675.181,337.163 675.181,337.455 
	675.281,337.648 675.181,337.94 674.988,338.136 674.888,338.232 674.697,338.331 674.596,338.525 674.404,338.721 674.211,338.915 
	674.113,339.109 674.012,339.207 673.908,339.305 673.222,339.986 673.126,339.986 672.832,340.473 672.638,340.764 
	672.541,340.958 672.248,341.148 672.054,341.25 671.861,341.25 671.673,341.35 671.569,341.542 671.569,342.125 671.673,342.609 
	671.673,344.061 671.771,344.354 671.673,344.645 671.673,345.42 671.569,346.006 671.569,346.396 671.469,346.792 671.469,346.98 
	671.276,347.377 671.177,347.668 671.177,347.961 671.077,348.252 670.885,348.545 670.885,348.648 670.985,348.75 670.885,348.941 
	670.784,349.131 670.681,349.232 670.681,349.625 670.582,349.918 670.48,350.209 670.48,350.814 670.378,351.004 670.28,351.004 
	670.176,351.193 670.28,351.391 670.28,351.682 670.176,351.874 670.176,352.063 670.076,352.252 669.885,352.84 669.885,353.715 
	669.697,354.008 669.697,354.299 669.502,354.693 669.502,354.883 669.313,355.277 669.018,355.67 668.83,355.961 668.538,356.254 
	668.434,356.445 668.143,356.739 667.955,356.928 667.761,357.219 667.371,357.697 667.267,357.801 667.079,357.989 
	666.975,358.186 666.787,358.375 666.593,358.566 666.495,358.762 666.391,359.15 666.495,359.443 666.495,359.734 666.391,360.027 
	666.391,360.223 666.294,360.516 666.196,360.704 666.092,360.893 665.904,361.186 665.8,361.29 665.409,361.477 665.117,361.874 
	664.924,362.061 664.825,362.061 664.631,362.165 664.533,362.561 664.726,362.657 664.825,362.756 664.825,362.95 664.726,363.241 
	664.533,363.534 664.34,363.825 664.152,363.924 663.958,364.217 663.764,364.508 663.666,364.801 663.374,364.898 663.218,364.866 
	663.027,365.063 662.927,365.352 662.732,365.54 662.542,365.645 662.441,365.743 662.341,365.844 662.239,365.943 662.05,366.047 
	661.756,366.236 661.564,366.338 661.271,366.338 660.98,366.527 660.98,366.924 660.88,367.025 660.88,367.127 660.778,367.127 
	660.678,367.225 660.486,367.329 660.186,367.329 660.085,367.62 660.085,367.82 659.981,367.922 659.981,368.114 659.69,368.114 
	659.59,368.213 659.489,368.213 659.386,368.314 659.386,368.887 659.287,368.991 659.183,369.284 659.084,369.471 658.984,369.575 
	658.88,369.866 658.783,369.969 658.68,370.068 658.491,370.26 658.387,370.45 658.387,370.553 658.285,370.652 658.387,370.945 
	658.387,371.145 658.285,371.243 658.186,371.243 658.186,371.145 658.083,371.243 657.983,371.243 657.881,371.346 
	657.781,371.346 657.68,371.243 657.581,371.243 657.479,371.346 657.479,371.45 657.375,371.547 657.276,371.547 657.276,371.648 
	657.175,371.547 657.072,371.45 656.881,371.45 656.781,371.547 656.881,371.648 656.881,371.749 656.693,371.749 656.401,371.85 
	656.401,371.954 656.5,372.053 656.5,372.152 656.599,372.256 656.599,372.538 656.5,372.637 656.5,372.738 656.109,372.738 
	656.005,372.84 655.905,372.84 655.905,372.941 655.805,373.042 655.701,373.143 655.701,373.738 655.805,373.738 655.905,373.842 
	656.201,373.842 656.201,373.938 656.301,374.04 656.405,374.139 656.405,374.344 656.301,374.443 656.201,374.543 656.1,374.543 
	656.1,374.643 655.997,374.741 655.997,374.934 656.191,375.034 656.382,375.034 656.57,374.934 656.674,374.836 656.775,374.934 
	656.874,374.934 656.977,375.034 657.078,375.139 657.369,375.139 657.47,375.034 657.574,374.934 657.673,374.836 657.673,374.543 
	657.774,374.35 657.876,374.252 657.876,374.152 658.065,373.959 658.169,373.861 658.358,373.76 658.46,373.76 658.563,373.861 
	658.854,374.049 659.044,374.152 659.235,374.344 659.235,374.445 659.426,374.633 659.528,374.736 659.528,375.12 659.63,375.307 
	659.63,375.704 659.528,375.891 659.528,376.184 659.426,376.377 659.326,376.477 659.326,376.67 659.224,376.861 659.224,376.961 
	659.122,377.154 659.122,377.254 658.933,377.445 658.83,377.445 658.83,377.545 658.731,377.645 658.628,377.749 658.628,377.852 
	658.528,378.146 658.427,378.436 658.324,378.73 658.324,378.831 658.223,378.928 658.124,379.025 657.932,379.127 657.74,379.318 
	657.639,379.713 657.54,380.002 657.438,380.398 657.438,381.377 657.54,381.672 657.54,383.131 657.729,383.229 657.92,383.229 
	658.111,383.327 658.211,383.428 658.504,383.719 658.605,383.823 658.709,384.012 658.709,384.206 659.001,384.398 
	659.101,384.398 659.293,384.497 659.482,384.497 659.586,384.691 659.685,384.79 659.786,384.887 659.977,385.081 659.977,385.566 
	660.17,385.762 660.359,385.859 660.462,385.958 660.462,386.057 660.563,386.25 660.563,386.443 660.462,386.734 660.359,387.027 
	660.256,387.418 660.066,387.611 659.965,387.711 659.864,387.904 659.672,388.002 659.482,388.102 659.293,388.295 
	659.101,388.393 658.908,388.686 658.615,388.977 658.615,389.17 658.516,389.366 658.324,389.756 658.222,390.049 658.031,390.534 
	657.931,390.633 657.74,390.827 657.447,390.926 657.447,391.004 657.347,391.107 657.247,391.398 657.145,391.691 657.043,391.795 
	656.851,391.896 656.751,391.995 656.65,392.188 656.459,392.379 656.459,392.48 656.357,392.771 656.357,392.874 656.256,392.971 
	656.256,393.359 656.157,393.459 656.055,393.557 655.763,393.85 655.66,394.043 655.66,394.309 655.559,394.6 655.368,394.7 
	655.266,394.893 655.168,394.991 655.168,395.096 654.975,395.096 654.783,395.195 654.593,395.195 654.402,395.295 
	654.302,395.398 654.199,395.79 654.099,395.982 654.099,396.377 654.199,396.667 654.199,397.545 654.099,397.838 653.999,398.129 
	653.999,398.319 654.099,398.51 654.099,398.61 653.999,398.713 653.806,398.903 653.806,399.288 653.707,399.481 653.415,399.481 
	653.222,399.668 653.122,399.862 653.018,400.153 653.018,400.254 652.434,400.637 652.14,400.739 652.044,400.84 651.941,401.038 
	651.751,401.131 651.556,401.237 651.264,401.333 651.076,401.237 650.77,401.237 650.479,401.424 650.177,401.424 649.989,401.528 
	649.885,401.528 649.591,401.627 649.494,401.727 649.202,401.918 649.098,401.918 648.998,402.022 648.9,402.213 648.796,402.313 
	648.796,402.502 648.9,402.698 648.998,402.797 648.998,402.997 648.9,403.1 648.9,403.29 649.088,403.479 649.283,403.579 
	649.573,403.682 649.867,403.782 649.966,403.883 650.07,403.985 650.167,404.083 650.267,404.188 650.563,404.479 650.563,404.672 
	650.664,404.868 650.664,404.965 650.854,404.965 650.854,404.868 651.045,404.965 651.345,404.965 651.449,404.868 
	651.449,404.182 651.548,404.079 651.646,404.079 651.84,403.979 651.938,404.079 652.115,404.079 652.214,404.182 652.408,404.372 
	652.506,404.567 652.506,405.151 652.607,405.249 652.71,405.249 652.808,405.352 652.808,405.45 652.912,405.643 653.011,405.833 
	653.011,406.125 652.912,406.229 652.912,406.815 652.808,407.002 652.808,407.108 653.002,407.204 653.1,407.307 653.204,407.405 
	653.1,407.502 653.1,407.698 653.002,407.795 652.808,407.795 652.808,408.575 652.912,408.67 652.912,408.963 653.011,409.069 
	653.11,409.167 653.214,409.362 653.214,410.524 654.189,410.817 654.384,410.915 654.675,411.108 654.967,411.295 655.066,411.491 
	655.551,411.979 656.136,412.458 656.526,412.854 657.012,413.042 657.202,413.147 657.684,413.334 658.08,413.627 658.559,413.823 
	659.83,414.6 661,414.991 661.879,415.391 662.463,415.788 662.854,416.081 663.438,416.469 664.604,416.76 675.792,417.155 
	675.792,419.295 675.306,419.391 674.916,419.493 674.813,419.588 674.521,419.784 674.419,419.977 674.32,420.17 674.32,437.26 
	674.612,437.366 675.106,437.366 675.206,437.469 675.69,437.569 675.981,437.569 676.375,437.469 676.765,437.469 677.059,437.366 
	677.747,437.366 677.843,437.26 677.943,437.163 678.214,437.163 678.507,437.059 678.698,436.963 678.888,436.963 678.989,436.862 
	679.091,436.862 679.091,436.758 679.193,436.655 679.292,436.555 679.486,436.555 679.675,436.655 679.875,436.655 
	679.975,436.555 679.975,436.456 679.875,436.352 679.875,436.254 680.067,436.254 680.166,436.352 680.662,436.352 
	680.759,436.254 680.863,436.254 680.863,436.049 680.963,436.153 681.06,436.153 681.164,436.256 681.352,436.153 681.547,436.049 
	681.644,435.952 682.04,435.854 682.137,435.854 682.234,435.75 682.429,435.653 682.527,435.75 682.721,435.653 682.917,435.547 
	683.013,435.547 683.209,435.45 683.506,435.551 683.506,435.456 683.984,435.456 684.275,435.284 684.572,435.184 685.344,434.891 
	685.636,434.891 685.74,434.792 685.928,434.694 686.22,434.59 686.804,434.495 687.096,434.391 687.876,434.202 688.168,434.098 
	688.46,433.999 688.752,433.901 689.044,433.797 689.337,433.797 689.717,433.709 690.008,433.604 691.564,433.604 691.663,433.5 
	691.763,433.208 691.956,433.02 692.932,432.833 693.224,432.833 693.516,432.727 693.62,432.727 693.719,432.624 693.82,432.528 
	694.404,432.331 694.698,432.235 696.348,432.235 696.744,432.135 697.037,431.942 697.516,431.942 698.1,431.842 698.788,431.842 
	699.079,431.942 699.652,431.942 699.753,432.04 700.045,432.04 700.144,431.942 700.144,431.842 700.248,431.651 700.345,431.549 
	700.542,431.458 700.73,431.555 701.418,431.555 701.71,431.458 701.898,431.36 702.287,431.36 702.475,431.256 702.769,431.256 
	702.961,431.36 703.06,431.458 703.253,431.555 703.547,431.458 703.737,431.36 704.028,431.165 704.422,431.067 705.689,431.067 
	705.883,431.165 705.982,431.165 706.086,431.264 706.288,431.264 706.386,431.165 706.678,431.165 706.971,431.067 
	707.165,431.165 707.936,431.165 708.128,431.067 708.711,431.067 708.81,431.165 708.914,431.264 709.587,431.264 709.879,431.364 
	710.27,431.073 710.564,431.264 711.252,431.264 711.544,431.165 712.025,431.264 712.507,431.364 712.995,431.461 713.287,431.461 
	713.475,431.563 713.871,431.668 714.936,431.668 715.229,431.766 716.296,431.87 716.49,431.969 717.658,431.969 717.847,432.071 
	719.094,432.071 719.289,431.969 719.477,431.87 719.67,431.87 719.961,431.969 720.254,431.969 720.357,431.87 720.357,431.575 
	720.459,431.475 720.556,431.375 720.66,431.375 720.761,431.475 720.953,431.575 720.953,431.776 721.053,431.874 721.155,431.977 
	721.448,431.977 721.739,431.874 722.124,431.874 722.313,431.776 722.607,431.776 722.798,431.676 723.382,431.676 
	723.674,431.573 723.775,431.573 723.966,431.473 724.068,431.473 724.258,431.374 724.451,431.473 724.639,431.573 
	725.419,431.573 726.197,431.088 726.385,430.989 726.489,430.887 726.781,430.887 726.88,430.79 727.173,430.79 727.273,430.684 
	727.567,430.583 727.567,430.485 727.668,430.381 727.769,430.282 727.769,430.186 727.87,430.186 727.971,430.081 728.17,430.081 
	728.17,429.985 727.982,429.985 727.878,429.885 727.878,429.301 727.982,429.2 728.079,429.102 728.178,429 728.287,428.897 
	728.385,428.797 728.676,428.797 728.776,428.897 728.776,429.19 728.88,429.19 728.979,429.002 729.081,428.899 729.181,428.709 
	729.278,428.606 729.382,428.506 729.382,428.213 728.979,428.213 728.79,428.313 728.59,428.313 728.396,428.213 728.297,428.11 
	728.297,428.006 728.193,427.715 728.193,426.459 728.297,426.264 728.396,426.168 728.499,425.973 728.688,425.875 728.98,425.68 
	729.271,425.489 729.564,425.387 729.76,425.288 729.953,425.184 730.142,425.086 730.245,425.086 730.344,424.985 730.44,424.793 
	730.344,424.694 730.245,424.502 730.142,424.307 730.044,424.12 729.94,424.016 729.839,423.918 729.646,423.815 729.751,423.918 
	729.751,424.016 729.646,424.016 729.547,423.918 729.45,423.723 729.45,423.534 729.255,423.344 729.063,423.344 728.67,423.446 
	728.572,423.344 728.468,423.053 728.37,422.95 728.176,422.555 728.176,422.262 728.077,421.969 728.176,421.196 728.76,421.592 
	728.864,421.885 729.052,422.073 729.052,422.262 729.156,422.458 729.254,422.555 729.546,422.555 729.646,422.657 
	729.945,422.657 730.047,422.76 730.047,422.95 730.145,423.053 730.339,423.241 730.438,423.43 730.54,423.522 730.729,423.709 
	730.729,423.813 730.832,423.915 731.021,424.106 731.215,424.293 731.215,424.594 731.313,424.887 731.313,424.985 
	731.415,425.088 731.512,425.088 731.609,425.188 731.421,425.379 731.421,425.481 731.317,425.672 731.221,425.862 
	731.123,425.965 731.02,426.153 730.922,426.256 730.818,426.356 730.621,426.356 730.621,426.459 730.518,426.649 730.518,426.752 
	730.621,426.848 730.718,426.95 730.82,427.141 730.924,427.241 731.021,427.241 731.125,427.34 731.125,427.438 731.314,427.538 
	731.807,427.538 732.196,427.432 732.884,427.432 733.177,427.534 733.365,427.534 733.658,427.631 733.951,427.631 
	734.145,427.731 734.346,427.932 734.444,428.122 734.546,428.122 734.546,428.415 734.444,428.518 734.444,428.618 
	734.346,428.721 734.242,428.819 734.438,428.917 735.117,428.917 735.513,428.819 736.097,428.819 736.576,428.625 
	736.771,428.528 737.355,428.333 737.747,428.139 738.144,428.139 739.213,428.04 739.604,427.944 739.994,427.844 740.391,427.651 
	740.869,427.456 741.354,427.165 741.844,426.971 742.136,426.872 742.428,426.776 742.907,426.676 743.201,426.571 
	744.078,426.571 744.271,426.676 744.856,426.676 745.148,426.776 745.927,426.872 746.329,426.807 746.523,426.708 
	746.815,426.807 748.762,426.618 749.241,426.618 749.929,426.514 750.408,426.415 751.286,426.415 751.577,426.317 
	751.871,426.317 752.063,426.219 752.456,426.026 752.939,425.831 753.23,425.639 753.334,425.54 753.521,425.44 753.625,425.344 
	753.625,425.241 753.725,425.137 753.918,425.038 754.209,424.942 754.602,424.84 754.993,424.737 755.389,424.737 755.577,424.637 
	756.063,424.637 756.547,424.534 756.84,424.434 757.163,424.329 757.354,424.231 757.551,424.127 757.745,424.024 757.843,424.024 
	758.038,423.924 758.52,423.924 758.711,424.024 758.903,424.024 759.092,424.127 759.477,424.127 759.948,424.313 759.946,424.321 
	760.05,424.514 760.238,424.614 760.528,424.805 760.722,424.907 761.014,425.098 761.209,425.198 761.396,425.389 761.689,425.586 
	761.793,425.682 761.89,425.877 761.99,426.067 762.094,426.354 762.094,427.336 761.99,427.432 761.99,427.534 762.181,427.635 
	762.377,427.825 762.564,428.016 762.859,428.411 762.859,428.512 762.963,428.702 762.963,428.885 762.859,429.079 
	762.759,429.178 762.37,429.575 761.876,429.575 761.682,429.67 761.682,429.963 761.876,430.059 761.973,430.254 762.077,430.352 
	762.173,430.458 762.369,430.555 762.563,430.555 762.666,430.75 762.763,430.846 763.347,431.432 764.419,432.116 764.808,432.307 
	765.1,432.409 765.496,432.6 765.684,432.795 765.976,433.088 766.372,433.184 766.56,433.379 766.854,433.477 767.34,433.477 
	767.438,433.379 767.541,433.379 767.541,433.477 767.639,433.577 767.734,433.674 767.931,433.479 768.027,433.479 
	768.318,433.381 768.613,433.479 768.613,433.674 768.515,433.772 768.417,433.965 768.515,434.063 768.807,434.258 
	769.001,434.258 769.188,434.354 770.26,434.938 770.94,435.135 771.428,435.329 771.916,435.426 772.62,435.624 773.014,435.721 
	773.701,435.915 774.182,436.108 774.766,436.301 775.936,436.594 776.52,436.692 777.005,436.889 777.484,436.983 778.263,437.18 
	778.652,437.276 780.215,437.276 780.508,437.18 780.799,437.075 781.384,437.075 781.676,437.264 781.867,437.264 782.26,437.167 
	782.358,437.167 782.553,437.459 782.745,437.356 782.844,437.356 782.745,437.167 782.933,437.167 783.127,437.264 
	783.313,437.459 784.095,437.848 784.29,437.95 784.971,438.141 785.264,438.334 785.556,438.432 785.847,438.627 786.243,438.817 
	786.634,439.012 787.021,439.112 787.315,439.211 787.712,439.211 787.811,439.309 788.004,439.504 788.297,439.6 789.072,439.795 
	789.173,439.893 789.563,439.893 789.667,439.795 789.854,439.987 789.959,440.088 790.438,440.188 791.515,440.188 
	791.616,440.292 791.805,440.479 791.995,440.479 792.099,440.381 792.099,439.797 792.2,439.602 792.2,439.415 792.299,439.219 
	792.299,438.831 792.398,438.725 792.299,438.334 792.398,438.141 792.398,437.954 792.299,437.663 792.299,437.37 792.2,437.079 
	792.2,436.883 792.099,436.786 791.995,436.495 791.895,436.202 791.705,436.006 791.515,435.813 791.324,435.522 791.13,435.331 
	791.13,434.938 791.232,434.75 791.423,434.555 791.616,434.362 791.908,434.264 792.1,434.165 792.205,434.165 792.396,434.059 
	792.688,433.961 792.878,433.766 792.982,433.67 793.171,433.573 793.171,433.178 792.982,432.989 792.878,432.887 792.779,432.79 
	792.587,432.684 792.294,432.586 792,432.487 791.901,432.293 791.71,432.192 791.608,432.002 791.71,431.807 791.71,431.514 
	791.811,431.327 791.811,431.221 791.913,431.124 791.913,430.54 791.721,430.436 791.53,430.338 791.339,430.145 791.237,430.045 
	791.136,429.852 791.136,429.665 791.237,429.561 791.631,429.374 791.923,429.268 792.021,429.081 792.021,428.502 
	791.923,428.405 791.821,428.301 791.53,427.913 791.428,427.516 791.428,427.329 791.329,427.133 791.227,426.94 791.124,426.84 
	790.733,426.94 790.632,427.045 790.439,427.338 790.341,427.434 790.237,427.434 790.137,427.338 790.037,427.233 789.934,427.135 
	789.835,427.038 789.835,426.641 789.641,426.348 789.452,426.25 789.349,425.764 789.544,425.473 789.642,425.178 789.642,424.991 
	789.544,424.797 789.443,424.7 789.047,424.506 788.859,424.213 788.667,424.02 788.18,423.833 787.889,423.637 787.499,423.542 
	787.305,423.344 787.206,423.053 787.206,422.76 786.915,422.469 786.813,422.274 786.521,422.374 786.332,422.178 786.229,422.083 
	786.229,421.69 786.04,421.499 785.845,421.499 785.554,421.594 785.262,421.594 784.872,421.399 784.579,421.301 784.475,421.108 
	784.378,420.717 784.378,420.426 784.479,420.204 784.581,419.807 784.581,419.62 784.771,419.137 784.669,418.743 784.571,418.553 
	784.28,418.553 783.987,418.657 783.792,418.754 783.597,418.754 783.501,418.657 783.501,418.553 783.403,418.362 783.403,418.258 
	783.299,418.159 783.299,417.573 783.111,416.799 783.209,416.696 783.209,416.506 783.306,416.506 783.502,416.211 
	783.883,416.211 784.078,416.315 784.174,416.211 784.174,415.733 783.986,415.542 783.791,415.348 783.5,415.153 783.4,415.055 
	783.4,414.958 783.5,414.858 784.086,414.858 784.184,414.754 784.184,414.168 784.288,413.979 784.386,413.786 785.164,413.786 
	785.352,413.883 785.456,413.786 785.456,413.592 785.352,413.397 785.253,413.209 785.253,412.827 785.155,412.536 785.155,412.34 
	785.447,411.852 785.739,411.561 785.836,411.374 786.031,411.081 786.415,411.081 786.609,410.975 786.797,410.682 
	786.901,410.495 786.901,410.299 786.998,410.104 787.095,409.715 787.29,409.522 787.485,409.422 787.673,409.225 788.061,409.225 
	788.061,408.934 788.25,408.747 788.542,408.551 788.645,408.551 788.834,408.647 788.938,408.647 789.035,408.749 789.133,408.844 
	789.229,408.844 789.326,408.649 789.424,408.36 789.424,407.588 789.528,407.483 789.624,407.385 789.723,407.29 790.014,407.188 
	790.41,406.997 790.604,406.801 790.5,406.51 790.5,406.315 790.403,405.926 790.403,405.633 790.299,405.438 790.299,405.245 
	790.403,405.147 790.5,405.049 790.604,405.049 790.702,405.147 790.896,405.245 790.994,405.147 791.091,404.954 791.091,404.766 
	790.994,404.475 790.896,404.372 790.896,404.079 790.994,403.786 791.091,403.688 791.383,403.59 791.579,403.493 791.676,403.393 
	791.676,403.1 791.774,402.909 792.045,402.293 792.144,402.293 792.247,402.194 792.345,402.09 792.538,402.194 792.638,402.09 
	792.638,400.922 792.742,400.532 792.742,399.461 792.841,399.17 793.035,398.877 793.035,398.002 792.931,397.807 793.123,397.325 
	793.023,397.135 792.831,397.032 792.441,396.741 792.441,396.447 792.337,396.26 792.149,395.969 792.149,395.866 792.247,395.676 
	792.442,395.484 792.442,395.293 792.539,395.1 792.539,395 792.635,394.811 792.635,394.424 792.739,393.939 792.739,393.834 
	793.031,393.542 793.129,393.443 793.324,392.857 792.928,392.564 792.74,392.374 792.636,392.186 792.636,391.993 792.536,391.893 
	792.636,391.497 792.636,391.309 792.829,391.018 793.021,390.825 793.211,390.725 793.402,390.532 793.795,390.34 793.986,390.145 
	794.572,390.047 794.76,389.852 794.864,389.852 795.055,389.754 795.449,389.754 795.74,389.654 795.93,389.463 796.032,389.07 
	796.032,388.879 795.84,388.586 795.84,388.391 795.74,388.204 795.449,388.016 795.449,387.725 795.548,387.527 795.74,387.432 
	795.84,387.236 795.84,387.137 795.944,387.034 796.132,386.846 796.236,386.551 796.236,386.448 796.335,386.26 796.335,386.064 
	796.396,385.993 796.494,385.889 796.598,385.788 796.786,385.688 796.89,385.395 796.992,385.204 "/>


<path id="261" fill="#D6D5CC" stroke="#000000" d="M710.203,430.834l0.025,0.205l-0.359,0.348l-0.27-0.09l-0.207-0.039l-0.09-0.013h-0.219
	l-0.205,0.013l-0.077-0.064l-0.116-0.076l-0.064-0.039l-0.154-0.025l-0.167,0.013l-0.218,0.052l-0.168,0.025l-0.18,0.013
	l-0.116,0.052l-0.154-0.039l-0.128-0.039h-0.168h-0.219l-0.295,0.039l-0.271,0.052l-0.155,0.063l-0.076,0.014l-0.116-0.039
	l-0.09-0.038l-0.116-0.026l-0.18-0.09l-0.115-0.013h-0.182l-0.359,0.026h-0.27h-0.296l-0.425,0.09l-0.244,0.154l-0.295,0.103
	l-0.207,0.077l-0.076-0.013l-0.193-0.064l-0.077-0.09l-0.038-0.013l-0.181-0.078l-0.052-0.012l-0.244,0.051l-0.115,0.025
	l-0.193,0.014l-0.231,0.051l-0.244,0.078l-0.219,0.103h-0.206l-0.115-0.013l-0.438-0.025l-0.18-0.053l-0.154,0.078l-0.104,0.09
	l-0.09,0.141l-0.064,0.168l-0.064,0.051l-0.077,0.026l-0.052-0.013l-0.115-0.025l-0.115-0.026l-0.219-0.038l-0.219-0.014
	l-0.129-0.025l-0.36-0.025l-0.36-0.025l-0.334,0.025l-0.566,0.038l-0.438,0.077l-0.348,0.104l-0.397,0.129l-0.181,0.025
	l-0.141-0.014l-0.387-0.025l-0.617,0.014l-0.283,0.037l-0.32,0.039l-0.566,0.244h-0.014l-0.102,0.104l-0.117,0.064h-0.076
	l-0.334,0.077l-0.283,0.025l-0.939,0.257l-0.219,0.193l-0.129,0.219l-0.076,0.129l-0.039,0.038h-0.359l-0.181-0.013l-0.181-0.013
	l-0.166-0.013l-0.143-0.014l-0.168,0.026l-0.141,0.038h-0.167l-0.282,0.078l-0.387,0.064l-0.309,0.051l-0.309,0.051l-0.258,0.064
	l-0.359,0.143l-0.244,0.076l-0.798,0.18l-0.309,0.104l-0.553,0.154l-0.321,0.051l-0.219,0.129l-0.09,0.039l-0.245,0.064
	l-0.784,0.283l-0.283,0.129l-0.359,0.128l-0.232,0.038l-0.18,0.026l-0.064,0.013l-0.244-0.013l-0.206,0.013l-0.154,0.051
	l-0.116,0.09l-0.205,0.053h-0.064l-0.115-0.053l-0.154,0.091l-0.064,0.064l-0.115,0.052l-0.412,0.09l-0.104,0.09l-0.219,0.142
	l-0.167,0.052l-0.103-0.078l-0.064-0.051l-0.064-0.052l-0.076,0.065v0.089l-0.039,0.077l-0.104,0.052l-0.142,0.025l-0.257-0.038
	l-0.077-0.025l-0.142-0.039l-0.193,0.025l-0.013,0.09l0.116,0.09l-0.014,0.064l-0.076,0.064l-0.078,0.014h-0.141l-0.18-0.026
	l-0.232-0.038l-0.103,0.103l-0.052,0.103l-0.025,0.064l-0.052,0.052l-0.09,0.038l-0.091,0.039l-0.115,0.025l-0.205,0.077
	l-0.297,0.052l-0.27,0.025l-0.09,0.104l-0.025,0.025l-0.078,0.039l-0.104,0.051l-0.141,0.014l-0.129,0.012l-0.192-0.025h-0.129
	l-0.321,0.052l-0.064,0.025l-0.141,0.026h-0.193l-0.373,0.025l-0.258,0.013l-0.553-0.09l-0.064-0.038l-0.064-0.014l-0.09-0.025
	l-0.039,0.025l-0.063,0.014l-0.077,0.012H674.5l-0.348-0.166l0.039-17.106l0.09-0.231l0.078-0.142l0.256-0.231l0.154-0.078
	l0.361-0.115l0.514-0.076l-0.013-2.188l0.592,0.026l2.418-1.505l0.398-0.205l0.231-0.053h0.398l3.589-0.103l1.826-0.142l1.492-0.309
	l1.261-0.386l1.016-0.271l0.476-0.115l0.257,0.013l0.451,0.052l0.463,0.09l0.553,0.09l0.488,0.039l1.39,0.283l1.942,0.27
	l1.299,0.296l0.938,0.219l3.743,1.157l1.041,0.052l0.451-0.167l0.643-0.143l0.566-0.076l0.27-0.052l0.477-0.052l1.543-0.192
	l0.103-0.013 M710.203,430.834l0.025,0.205l0.283,0.193l0.682,0.039l0.348-0.064l0.502,0.064l0.476,0.141l0.463,0.052l0.283,0.038
	l0.257,0.091l0.412,0.052l0.27,0.012l0.746,0.053l0.348,0.025l1.016,0.18l0.219,0.064l0.296,0.013l0.347-0.013l0.271-0.052
	l0.271,0.077l0.205,0.09l0.322-0.051l0.129-0.025l0.18,0.012l0.412,0.014l0.192-0.014l0.244-0.025l0.192-0.09l0.193-0.013
	l0.244,0.077l0.206,0.013l0.116-0.064l0.076-0.09l0.014-0.154l0.025-0.077l0.064-0.104l0.09-0.076l0.142-0.025l0.116,0.025
	l0.103,0.129l0.04,0.141v0.077l0.14,0.129l0.064,0.038h0.258l0.309-0.025l0.244-0.051l0.142-0.039l0.244-0.052l0.231-0.026
	l0.258-0.025l0.167-0.025l0.128-0.013l0.258-0.013l0.282-0.052l0.078-0.025l0.192-0.077l0.193-0.09h0.154l0.231,0.051l0.206,0.052
	l0.18,0.026h0.129h0.141l0.039,0.025l0.154,0.025h0.077l0.811-0.488l0.129-0.129l0.09-0.077l0.09-0.038l0.064-0.014l0.154,0.014
	l0.167-0.039l0.142-0.039l0.128-0.051l0.116-0.039l0.257-0.141l0.052-0.053l0.039-0.076l0.077-0.129l0.064-0.078l0.09-0.051
	l0.064-0.039l0.091-0.025l0.076,0.013l0.064,0.013l0.013-0.103l-0.077-0.038l-0.104-0.025l-0.115-0.064l-0.025-0.039l-0.039-0.258
	l0.039-0.192l0.025-0.116l0.077-0.103l0.09-0.116l0.103-0.102l0.116-0.078l0.077-0.051l0.167-0.039h0.116l0.038,0.025l0.039,0.064
	l0.013,0.064l0.014,0.064l0.038,0.141l0.051,0.014l0.104-0.205l0.064-0.078l0.128-0.129l0.09-0.115l0.064-0.09l0.052-0.09v-0.078
	v-0.076l-0.025-0.052l-0.052-0.026l-0.154-0.051l-0.09,0.013l-0.104,0.038l-0.115,0.104l-0.129,0.025l-0.09-0.039l-0.181-0.115
	l-0.128-0.115l-0.026-0.104l-0.115-0.257l0.013-0.181l-0.025-0.256l0.025-0.143l0.013-0.23l0.013-0.143l0.039-0.115l-0.025-0.193
	l0.038-0.154l0.116-0.154l0.154-0.154l0.192-0.167l0.231-0.167l0.334-0.154l0.232-0.09l0.283-0.116l0.141-0.077l0.219-0.104
	l0.077-0.051l0.129-0.104l0.052-0.154l-0.026-0.115l-0.103-0.205l-0.142-0.207l-0.09-0.154l-0.103-0.128l-0.078-0.091l-0.025-0.038
	l-0.142-0.038v0.09l0.014,0.077l-0.063,0.038l-0.13-0.141l-0.052-0.219l-0.038-0.206l-0.193-0.193h-0.18l-0.373,0.116l-0.103-0.104
	l-0.142-0.257l-0.064-0.154l-0.142-0.335l-0.052-0.27l-0.051-0.334l0.077-0.798l0.592,0.438l0.115,0.282l0.116,0.219l0.051,0.143
	l0.077,0.166l0.115,0.116l0.129,0.038l0.104,0.014l0.143,0.038h0.102h0.129l0.038,0.026l0.09,0.09l0.078,0.193l0.09,0.154
	l0.154,0.18l0.115,0.129l0.129,0.167l0.154,0.218l0.052,0.064l0.09,0.129l0.142,0.168l0.167,0.192l0.038,0.063l-0.013,0.117
	l0.013,0.012l0.026,0.129l0.064,0.219l0.038,0.104l0.064,0.09l0.09,0.051l0.077,0.052l-0.128,0.244l-0.064,0.129l-0.09,0.18
	l-0.064,0.142l-0.116,0.168l-0.077,0.102l-0.077,0.116l-0.064,0.052l-0.078,0.039l-0.089,0.051l-0.052,0.025l-0.077,0.104
	l-0.025,0.115v0.116l0.064,0.128l0.142,0.129l0.078,0.154l0.037,0.078l0.077,0.051l0.104,0.064l0.076,0.076l0.143,0.091l0.103,0.013
	l0.27,0.014l0.168-0.026l0.386-0.025l0.296-0.039l0.373,0.026l0.296,0.076l0.167,0.026l0.282,0.052l0.168,0.025l0.128,0.025
	l0.181,0.064l0.115,0.053l0.129,0.115l0.142,0.192v0.064l0.013,0.077l0.052,0.167l-0.013,0.026l-0.065,0.128l-0.051,0.077
	l-0.115,0.064l-0.064,0.09l-0.039,0.025l0.064,0.039l0.167,0.025l0.193,0.014l0.359-0.026h0.116l0.386-0.013l0.219-0.014
	l0.373-0.063l0.463-0.154l0.283-0.116l0.527-0.23l0.45-0.129l0.359-0.052l1.055-0.077l0.399-0.064l0.347-0.142l0.477-0.181
	l0.488-0.205l0.463-0.258l0.438-0.205l0.321-0.104l0.36-0.141l0.398-0.09l0.335-0.052l0.386-0.04h0.115h0.154l0.271,0.04
	l0.116,0.038l0.192,0.025l0.321,0.039l0.116,0.013l0.257,0.013l0.811,0.116l0.373-0.103l0.192-0.064l0.309,0.09l1.981-0.154
	l0.501-0.013l0.632-0.091l0.526-0.103l0.553-0.038l0.348-0.014l0.231-0.038l0.36-0.052l0.141-0.051l0.386-0.206l0.502-0.181
	l0.258-0.18l0.18-0.167l0.18-0.064l0.039-0.063l0.051-0.181l0.052-0.052l0.219-0.141l0.296-0.064l0.346-0.104l0.426-0.09
	l0.373-0.025l0.193-0.039l0.205-0.013l0.335-0.064l0.463-0.052l0.309-0.129l0.334-0.09l0.129-0.064l0.244-0.09l0.167-0.076
	l0.064-0.064l0.231-0.052l0.245-0.052l0.257,0.052l0.219,0.038l0.142,0.014l0.257,0.076l0.142,0.026l0.167,0.038l0.515,0.206
	l0.206-0.707l0.09-0.283l0.064-0.154l0.077-0.296l0.192-0.463l0.219-0.592l0.231-0.502l0.245-0.565l0.142-0.501l0.051-0.258
	l0.154-0.502l0.154-0.411l0.193-0.399l0.115-0.282l0.733-0.656l0.411-0.296l0.283-0.154l0.412-0.257l0.501-0.245l0.477-0.295
	l0.553-0.322l0.321-0.205l0.644-0.373l0.553-0.334l0.592-0.373l0.36-0.258l0.437-0.348l0.348-0.282l0.09-0.103l0.052-0.412
	l0.038-0.18l-0.025-0.154l-0.052-0.232l-0.142-0.398l-0.103-0.476l0.064-0.181l0.219-0.141l0.373-0.193l0.36-0.064l0.231-0.013
	l0.321-0.077l0.257-0.142l0.154-0.077l0.296-0.219l0.167-0.193l0.104-0.219l-0.013-0.192l-0.168-0.36l-1.891-0.797l-9.028-0.077
	l-1.749-0.798l0.219-9.479l-0.875-0.025l-3.627-0.078l-0.733-0.063l-0.514-0.026l-0.399,0.039l-0.424,0.077l-0.36,0.025
	l-0.527,0.077l-0.373,0.104l-0.411,0.219l-0.335,0.141l-0.707,0.36l-0.348,0.154l-0.386,0.206l-0.283,0.386l-0.09,0.22l0.064,0.32
	l0.038,0.115l0.142,0.322l-0.063,0.219l-0.181,0.154l-0.321,0.09l-0.398,0.077l-0.309,0.052l-0.502,0.013l-0.231,0.038l-0.271,0.078
	l-0.154,0.154l-0.051,0.103l-0.013,0.282l0.026,0.193l-0.026,0.219l-0.104,0.154l-0.129,0.039l-0.218-0.014l-0.219-0.025
	l-0.18-0.025l-0.31-0.064l-0.129-0.025l-0.424-0.053l-0.398-0.076l-0.695-0.142l-0.359-0.052l-0.232,0.052l-0.18,0.167l-0.142,0.154
	l-0.141,0.334l-0.091,0.245l-0.206,0.271l-0.154,0.09l-0.219,0.025l-0.23,0.039l-0.309,0.025l-0.438-0.039l-0.733-0.09l-0.721,0.104
	l-0.488,0.064l-0.836-0.053l-0.309-0.051l-0.296-0.167l-0.257-0.077l-0.36-0.078l-0.193,0.014l-1.003-0.025l-0.463,0.025
	l-0.463-0.014l-0.347-0.012h-0.245l-0.373-0.064l-0.348-0.039l-0.321-0.013l-0.231-0.077l-0.167-0.244l-0.064-0.142l-0.039-0.386
	l0.014-0.348l-0.026-0.514l0.013-0.283l-0.013-0.412l0.104-0.463l-0.039-0.283l-0.025-0.205l-0.271-0.18H731.9l-0.257,0.076
	l-0.231,0.09l-0.206,0.039l-0.205,0.051l-0.219,0.039l-0.566-0.051l-0.271,0.038l-0.54-0.116l-0.192,0.064l-1.132,0.348
	l-0.398,0.025l-0.36,0.039l-0.631,0.103l-0.321,0.077l-0.732,0.142l-0.733,0.116l-1.067,0.488l-2.701,0.771l0.231,0.463l0.077,0.219
	l0.154,0.271l0.025,0.116l-0.025,0.18l-0.025,0.244l-0.064,0.231l-0.025,0.192l-0.014,0.232l0.052,0.359l0.039,0.116l0.127,0.283
	l0.13,0.244l0.116,0.22l0.103,0.153l0.231,0.192l0.219,0.09l0.115,0.014l0.258,0.09l0.231,0.025l0.206-0.038l0.27-0.052l0.205-0.051
	l0.245-0.039l0.193-0.013l0.282,0.038l0.129,0.052l0.09,0.154l0.077,0.167l0.116,0.232l0.013,0.153v0.142v0.296v0.142l-0.013,0.231
	v0.09l-0.077,0.283l-0.052,0.09l-0.077,0.142l-0.077,0.207l-0.064,0.127l-0.038,0.078l-0.026,0.051l-0.153,0.309l-0.154,0.104
	l-2.456,1.055l-1.775,1.119l-1.531,0.578l-1.84,0.578l-1.543,0.875l-2.225,0.759l-1.531,0.669l-1.145,0.334l-0.219,0.039
	l-0.745,0.129l-0.502,0.064l-1.118,0.115l-0.9,0.077l-0.708,0.116"/>






<text id="name" x="350" y="600" style="font-family: sans-serif; font-size: 22pt; stroke: none; fill: black;"> </text>




<script type="text/ecmascript">

<![CDATA[

function loadResults() {

	getURL("../svg/circunscripciones.php",processResults);

	setTimeout("loadResults();",30000);

}

function showName(evt) {

	NewItem = svgDocument.createTextNode(evt.getTarget().getAttribute("name"))
	svgDocument.getElementById("name").replaceChild(NewItem, svgDocument.getElementById("name").getFirstChild())	

}

function processResults(data) {

	if (data.success) {
		
		node = parseXML(data.content,document);
		node = node.getFirstChild();
		nodeList=node.getChildNodes();
		
		for (i=0; i <= node.getChildNodes().getLength() - 1; i++) {
		
		if (svgDocument.getElementById(nodeList.item(i).getAttribute("id")))
			svgDocument.getElementById(nodeList.item(i).getAttribute("id")).setAttribute("fill",nodeList.item(i).getAttribute("winner"));


		}

		
	}
	else {
		alert('problemas con recibo de resultado');
	}
}



]]></script>

</svg>
