<?xml version="1.0" encoding="utf-8"?>

<svg  version="1.1" width="1000" height="700"
	 onmousedown="popResults(evt)" onmouseover="showName(evt)" onload="loadResults()" viewBox="0 0 1000 700" overflow="visible" xml:space="preserve"> 



<polygon id = "11" fill="none" stroke="#000000" points="88.977,75.284 88.879,75.284 88.782,75.382 88.682,75.284 88.584,75.188 
	88.584,74.896 88.682,74.798 88.682,74.604 88.584,74.505 88.387,74.505 88.387,74.604 88.29,74.604 88.29,74.7 88.094,74.798 
	87.999,74.798 87.899,74.7 87.799,74.798 87.702,74.896 87.604,74.798 87.604,74.408 87.702,74.408 87.702,74.311 87.799,74.213 
	87.799,74.116 87.899,74.018 87.799,73.824 87.702,73.824 87.604,73.921 87.504,74.018 87.504,74.213 87.409,74.311 87.307,74.213 
	87.209,74.116 87.209,74.018 87.112,74.018 87.112,73.824 86.915,73.824 86.915,73.727 87.012,73.629 87.112,73.531 87.209,73.434 
	87.307,73.434 87.409,73.337 87.409,73.239 87.307,73.143 87.209,73.143 87.112,73.045 87.012,72.947 87.012,72.559 86.915,72.559 
	86.817,72.46 86.817,72.266 86.327,72.266 85.938,72.168 85.645,72.168 85.159,72.07 84.475,71.584 84.284,71.486 83.991,71.391 
	83.598,71.195 82.917,71 82.235,71 81.649,70.805 81.165,70.609 80.579,70.609 80.288,70.805 79.995,71 79.704,70.902 
	79.508,70.902 79.315,70.707 79.122,70.609 79.024,70.514 78.831,70.415 78.635,70.415 78.245,70.318 77.661,70.025 77.174,70.123 
	76.786,69.93 76.881,69.539 76.881,69.247 76.69,69.15 76.59,69.052 76.493,68.955 76.395,68.857 76.202,68.76 76.006,68.76 
	75.713,68.955 75.52,69.052 75.327,69.247 75.129,69.247 74.936,68.857 74.838,68.857 74.645,68.468 74.545,68.273 74.352,68.079 
	74.159,67.787 74.059,67.494 74.059,67.396 73.961,67.396 73.961,67.007 73.768,66.715 73.475,66.618 73.668,65.839 73.768,65.547 
	73.961,65.158 74.157,64.475 74.157,64.184 73.961,63.794 73.961,63.6 73.864,63.307 74.055,62.236 74.055,61.555 74.157,61.262 
	74.348,60.97 74.641,60.58 74.741,60.288 74.932,60.093 75.227,59.996 75.325,59.996 75.713,59.898 76.006,59.704 76.493,59.12 
	76.686,58.828 76.879,57.952 78.243,53.277 77.268,53.082 76.491,53.082 76.098,53.18 74.928,53.473 74.54,53.667 73.663,53.667 
	72.981,53.57 72.688,53.667 72.104,53.375 71.811,53.375 71.42,53.473 70.836,53.667 70.448,53.766 70.252,53.861 69.961,54.057 
	69.768,53.959 69.573,53.959 70.057,53.473 70.159,53.375 70.45,52.305 70.547,52.109 70.743,52.012 70.838,51.72 71.422,50.162 
	71.522,49.772 71.522,48.993 71.62,48.506 71.62,47.922 71.717,47.435 71.717,47.142 71.62,46.656 71.717,46.169 71.819,45.975 
	72.01,45.682 72.11,45.39 72.208,45.195 72.208,44.416 71.624,44.124 71.917,43.15 72.012,42.955 72.208,42.761 72.598,42.566 
	73.084,42.371 73.473,42.177 73.866,41.787 74.159,41.3 74.159,41.008 74.057,40.716 74.057,40.424 74.159,40.132 74.256,39.937 
	74.452,39.742 74.547,39.548 74.647,39.45 75.038,39.06 75.426,38.768 75.719,38.671 76.012,38.476 76.208,38.087 76.303,37.989 
	76.303,37.308 76.499,37.113 76.887,37.016 77.18,37.016 77.573,36.821 77.866,36.724 78.254,36.626 78.547,36.431 78.936,36.431 
	78.936,36.14 78.838,35.75 78.838,34.971 78.741,34.776 78.741,34.484 78.838,34.192 78.936,33.802 79.036,33.316 78.936,33.218 
	78.838,33.023 78.645,32.537 78.547,32.439 78.547,32.342 78.45,31.952 78.741,31.854 78.932,31.854 79.129,31.758 79.225,31.66 
	79.225,30.978 79.129,30.784 78.739,30.881 78.637,30.784 78.249,30.102 78.053,30.004 78.053,29.907 77.956,29.81 77.86,29.713 
	77.661,29.713 77.563,29.615 77.366,29.615 77.268,29.517 77.168,29.42 77.071,29.323 77.071,29.225 76.973,29.225 76.78,29.128 
	76.68,29.128 76.487,29.031 76.487,28.933 76.389,28.836 76.389,28.544 76.29,28.447 76.29,28.35 76.094,28.252 75.999,28.155 
	75.999,27.96 76.094,27.862 76.094,27.765 76.196,27.765 76.292,27.667 76.391,27.473 76.391,25.817 76.491,25.72 76.491,25.622 
	76.391,25.331 76.198,25.233 76.004,25.136 75.905,25.038 75.711,24.941 75.518,24.746 75.418,24.746 75.321,24.649 75.127,24.552 
	75.03,24.454 74.93,24.357 74.737,24.162 74.834,23.871 74.934,23.675 74.934,23.48 74.834,23.188 74.737,23.091 74.543,22.994 
	74.446,22.994 74.446,22.702 74.639,22.604 74.833,22.312 75.026,22.117 75.125,22.019 75.319,21.825 75.51,21.728 75.61,21.533 
	75.61,21.338 75.708,21.143 75.61,20.949 75.61,20.559 75.51,20.365 75.51,19.78 75.413,19.683 75.413,19.391 75.51,19.391 
	75.61,19.293 75.61,18.806 75.51,18.709 75.51,17.54 75.413,17.54 75.221,17.443 75.122,17.248 75.022,17.054 74.922,16.859 
	74.922,16.664 74.827,16.177 74.827,15.106 74.727,14.912 74.629,14.522 74.532,14.327 74.432,13.938 74.432,13.061 74.532,12.964 
	74.725,12.769 74.918,12.574 75.211,12.379 75.309,12.282 75.502,12.185 75.7,12.185 75.6,12.088 75.502,11.99 75.405,11.892 
	75.305,11.795 75.014,11.6 74.528,11.308 74.334,11.114 74.237,11.016 74.042,10.919 73.848,10.725 73.655,10.53 73.459,10.335 
	73.168,10.043 72.975,9.945 72.584,9.653 72.391,9.556 72.098,9.459 71.905,9.361 71.514,9.264 71.221,9.166 70.93,8.972 
	70.637,8.874 70.446,8.874 70.25,8.777 69.86,8.68 67.911,8.68 67.424,8.582 67.036,8.582 66.938,8.485 66.745,8.387 66.551,8.192 
	66.452,7.998 66.258,7.803 66.161,7.608 65.868,7.316 65.381,7.219 65.284,7.219 65.09,7.121 64.7,6.927 63.725,6.927 63.042,6.829 
	62.456,6.829 62.165,6.537 61.872,6.342 61.678,6.147 61.581,5.758 61.483,5.466 61.288,5.077 61.19,4.687 61.092,4.2 60.993,3.81 
	60.993,3.616 60.799,3.324 60.702,2.934 60.508,2.642 60.215,2.253 60.116,2.058 59.825,1.863 59.532,1.668 59.241,1.571 
	58.851,1.279 58.46,1.084 58.169,0.986 57.876,0.889 57.585,0.792 57.292,0.597 57.001,0.597 56.708,0.5 56.222,0.5 56.026,0.597 
	55.835,0.695 55.542,0.792 55.251,1.181 55.056,1.376 54.862,1.571 54.669,1.766 54.476,2.058 54.376,2.253 54.376,3.616 
	54.476,4.005 54.573,4.298 54.573,4.589 54.38,4.882 54.185,5.271 53.894,5.661 53.796,5.953 53.601,6.342 53.601,7.024 
	53.798,7.608 54.089,7.803 54.284,8.095 54.478,8.387 54.671,8.485 54.964,8.68 55.157,9.069 55.351,9.459 55.546,9.848 
	55.644,10.335 55.644,11.016 55.546,11.114 55.351,11.308 55.06,11.698 54.962,11.892 54.862,12.185 54.765,12.477 54.765,13.061 
	54.665,13.548 54.665,13.84 54.565,14.133 54.47,14.425 54.177,14.814 53.981,15.009 53.69,15.204 53.3,15.496 53.106,15.787 
	52.813,15.982 52.329,16.275 51.937,16.567 51.646,16.664 50.866,16.859 50.769,16.956 50.38,17.151 50.087,17.151 49.403,17.443 
	49.208,17.443 49.013,17.638 48.622,17.735 48.136,17.832 47.845,18.027 47.649,18.222 47.165,18.319 46.581,18.806 45.997,19.099 
	45.511,19.391 45.218,19.488 44.73,19.683 44.246,19.78 44.346,19.878 44.539,20.267 44.73,20.851 44.927,21.143 45.12,21.338 
	45.218,21.533 45.413,21.728 45.511,22.019 45.511,22.409 45.704,22.702 45.896,22.799 46.481,23.091 46.772,23.286 47.065,23.48 
	47.261,23.675 47.356,23.967 47.261,24.259 47.261,25.331 47.163,25.72 47.261,25.915 47.382,26.207 47.382,26.597 47.286,26.694 
	47.286,27.473 47.091,27.765 47.091,28.155 46.993,28.641 46.894,28.836 46.796,28.933 46.796,29.225 46.991,29.42 47.282,29.615 
	47.38,29.713 47.478,30.004 47.577,30.297 47.771,30.589 47.87,30.784 48.062,31.076 48.255,31.173 48.255,31.368 48.159,31.66 
	47.964,31.854 47.866,32.049 47.767,32.439 47.378,32.634 47.085,32.731 46.403,32.731 46.011,32.829 45.524,32.829 45.235,32.926 
	45.136,33.023 44.65,33.023 44.457,32.926 44.064,32.926 43.871,33.023 43.678,33.023 43.385,32.926 43.191,32.829 42.898,32.731 
	42.607,32.829 42.414,32.926 42.123,33.218 41.928,33.316 41.83,33.51 41.635,33.607 41.539,33.9 41.344,34.095 41.246,34.289 
	41.049,34.484 40.953,34.679 40.758,35.263 40.66,35.457 40.369,35.847 39.979,36.14 39.881,36.334 39.393,36.334 39.102,36.236 
	38.908,36.334 38.715,36.529 38.615,36.821 42.123,41.105 42.021,41.592 42.021,42.079 41.924,42.274 41.73,42.371 41.633,42.566 
	41.535,42.761 41.34,42.955 41.047,42.955 40.756,43.15 40.465,43.15 40.27,43.247 40.078,43.345 39.883,43.345 39.59,43.247 
	39.396,43.15 39.104,43.247 38.912,43.442 38.717,43.637 38.521,43.735 37.938,43.735 37.646,43.637 37.162,43.637 36.967,43.54 
	36.771,43.637 36.385,43.637 36.191,43.54 36,43.637 35.898,43.735 35.898,44.124 36,44.319 36,44.514 35.898,44.806 35.707,45 
	35.514,45.098 35.318,45.195 35.123,45.195 35.021,45.098 34.926,45 34.828,44.903 34.828,44.709 34.633,44.514 34.537,44.416 
	34.436,44.416 34.143,44.222 33.852,44.124 33.66,44.027 33.66,43.442 33.758,43.345 33.758,42.955 33.854,42.761 33.854,42.079 
	33.758,41.982 33.66,41.787 33.559,41.689 33.463,41.495 33.268,41.397 33.172,41.3 33.072,41.3 32.879,41.203 32.684,41.203 
	32.586,41.3 32.391,41.495 32.293,41.689 32.195,41.884 32.096,41.982 31.998,41.982 31.9,42.079 31.801,41.982 31.607,41.982 
	31.508,41.884 31.412,41.787 31.217,41.689 31.021,41.592 31.021,41.495 30.924,41.397 30.826,41.203 30.826,40.911 30.924,40.813 
	31.021,40.716 31.123,40.521 31.314,40.424 31.414,40.327 31.512,40.132 31.512,39.644 31.414,39.548 31.314,39.45 31.217,39.353 
	31.119,39.255 30.924,39.158 30.73,39.158 30.438,39.06 29.953,39.06 29.854,39.158 29.854,39.255 29.756,39.353 29.658,39.548 
	29.559,39.644 29.461,39.742 29.363,39.937 28.971,39.937 28.68,39.84 28.582,39.742 28.482,39.742 28.289,39.548 28.189,39.45 
	28.189,38.768 28.289,38.671 28.189,38.476 27.998,38.379 27.705,38.379 27.414,38.281 27.021,38.087 26.922,38.087 26.73,37.989 
	26.537,37.989 26.342,37.892 25.957,37.892 25.76,37.795 25.568,37.795 25.375,37.892 25.18,37.892 24.988,38.087 24.793,38.184 
	24.695,38.379 24.502,38.476 24.402,38.574 24.209,38.768 23.721,38.768 23.529,38.671 22.656,38.671 22.463,38.574 22.266,38.379 
	21.881,38.379 21.783,38.476 21.682,38.476 21.586,38.574 21.488,38.574 21.488,38.671 21.387,38.963 21.191,38.963 21.191,38.866 
	21.092,38.671 21.092,37.989 20.996,37.892 20.996,37.795 20.895,37.503 20.797,37.308 20.701,37.016 20.6,36.724 20.504,36.529 
	20.404,36.334 20.211,36.236 18.943,36.236 18.553,36.14 17.969,36.14 17.871,36.334 17.771,36.529 17.771,36.918 17.48,36.918 
	17.381,36.821 17.285,36.724 17.184,36.626 17.088,36.626 16.988,36.529 16.889,36.431 16.791,36.334 16.596,36.14 16.5,36.042 
	16.5,35.944 16.596,35.847 16.596,35.652 16.697,35.555 16.697,35.36 16.795,35.263 16.893,35.165 16.992,35.165 16.992,34.873 
	16.893,34.776 16.893,34.679 16.795,34.581 16.795,34.484 16.697,34.387 16.502,34.192 16.012,34.192 15.82,34.289 15.625,34.289 
	15.625,34.387 15.529,34.581 15.625,34.776 15.625,35.165 15.529,35.263 15.428,35.36 15.33,35.457 14.936,35.457 14.84,35.36 
	14.84,35.263 14.74,35.165 14.641,35.068 14.641,34.873 14.447,34.776 14.35,34.484 14.35,34.289 14.252,34.192 14.252,33.705 
	14.152,33.51 14.053,33.412 13.469,33.412 13.275,33.51 13.176,33.51 13.08,33.607 12.885,33.705 12.691,33.9 12.592,33.9 
	12.398,33.997 12.203,33.997 12.203,33.607 12.301,33.51 12.301,33.412 12.398,33.218 12.301,33.121 12.301,32.537 12.203,32.439 
	12.104,32.342 12.006,32.342 12.006,32.244 11.813,32.147 11.715,32.049 11.617,31.952 11.518,31.854 11.225,31.854 11.033,31.952 
	10.838,32.049 10.74,32.147 10.545,32.244 10.447,32.439 10.348,32.537 10.348,32.731 10.25,32.926 10.25,33.023 10.053,33.023 
	9.955,32.926 9.857,32.926 9.664,32.829 9.564,32.731 9.465,32.634 9.369,32.439 9.27,32.342 9.172,32.147 9.172,32.049 
	9.074,31.854 9.172,31.66 9.172,31.27 9.27,31.076 9.27,30.881 9.172,30.784 9.074,30.784 8.879,30.686 8.781,30.784 8.588,30.784 
	8.488,30.881 8.391,30.978 8.197,31.076 8.197,31.465 8.295,31.66 8.295,31.951 8.197,32.146 7.9,32.146 7.803,32.048 7.412,31.951 
	7.314,31.853 7.119,31.757 7.021,31.659 6.827,31.561 6.635,31.367 6.535,31.269 6.243,31.172 6.146,31.075 5.659,31.075 
	5.465,31.172 5.367,31.269 5.172,31.367 4.879,31.561 4.879,32.243 4.783,32.341 4.783,32.438 4.686,32.633 4.686,33.217 
	4.588,33.315 4.588,33.606 4.49,33.801 4.394,33.899 4.394,34.094 4.295,34.191 4.295,34.288 4.198,34.483 4.198,34.775 
	4.295,34.97 4.394,35.067 4.394,35.262 4.295,35.359 4.295,35.651 4.198,35.75 4.102,35.846 4.102,36.333 4.004,36.43 4.004,36.528 
	4.102,36.625 4.102,36.917 4.004,37.015 3.906,37.015 3.81,37.112 3.711,37.209 3.614,37.307 3.614,37.404 3.516,37.502 
	3.516,37.599 3.42,37.599 3.322,37.697 3.225,37.891 3.225,37.988 3.127,38.086 3.03,38.183 2.932,38.378 2.932,38.475 
	2.836,38.573 2.836,38.67 2.737,38.767 2.737,38.962 2.641,39.059 2.543,39.157 2.445,39.352 2.445,39.449 2.25,39.547 2.25,39.741 
	2.153,39.839 2.153,39.936 2.057,40.033 2.057,40.228 1.959,40.423 1.959,40.715 1.861,40.91 1.764,41.007 1.668,41.202 
	1.668,41.299 1.569,41.396 1.471,41.494 0.985,42.857 0.791,43.441 0.596,43.831 0.5,44.513 0.5,45.097 0.596,45.584 0.693,45.974 
	1.084,46.363 1.276,46.655 1.471,46.947 1.569,47.336 1.668,47.532 1.668,47.726 1.764,48.018 1.764,48.31 1.668,48.505 
	1.569,48.797 1.569,49.186 1.861,49.381 2.153,49.868 2.445,49.966 2.737,50.258 3.225,50.55 3.42,50.647 3.906,50.745 
	4.394,50.842 4.978,51.036 5.367,51.134 5.756,51.231 5.95,51.426 6.146,51.719 6.243,51.914 6.34,52.206 8.484,52.206 8.971,52.4 
	9.363,52.498 9.947,52.79 10.24,52.984 10.531,53.275 10.723,53.375 11.115,53.568 11.506,53.667 11.895,53.764 12.186,53.859 
	12.479,53.958 12.871,53.958 13.063,54.152 13.164,54.25 13.26,54.348 13.549,54.348 13.646,54.25 13.842,54.152 14.232,54.445 
	14.523,54.542 15.109,54.641 15.303,54.736 15.498,54.834 15.791,55.127 16.178,55.518 16.471,55.905 16.865,56.393 17.449,56.782 
	17.838,56.979 18.324,57.27 18.715,57.563 19.102,57.952 19.297,58.146 19.494,58.34 19.494,58.632 19.59,59.021 19.59,59.216 
	19.688,59.508 19.688,59.704 19.881,60.288 20.174,60.58 20.369,60.677 20.467,60.773 20.758,60.773 21.439,60.969 21.635,60.969 
	21.926,61.165 22.416,61.359 22.707,61.457 23.096,61.65 23.488,61.848 23.971,62.139 24.555,62.527 25.141,62.917 25.533,63.405 
	25.922,63.891 26.117,64.475 26.309,64.865 26.699,65.838 26.797,66.714 26.699,67.202 26.598,67.883 26.598,69.247 26.699,69.539 
	26.797,69.732 26.992,70.025 27.475,70.221 28.059,70.318 28.35,70.415 28.744,70.415 29.227,70.514 29.715,70.609 30.104,70.707 
	30.395,70.805 30.688,70.707 30.883,70.609 30.979,70.415 30.979,69.93 31.174,69.831 31.467,69.831 31.564,69.93 31.666,69.93 
	31.859,70.025 31.957,70.025 32.148,70.123 32.342,70.221 32.539,70.221 32.73,70.025 32.73,69.637 32.633,69.539 32.535,69.345 
	32.535,69.247 32.727,69.148 32.922,69.247 33.02,69.441 33.02,69.732 33.121,69.93 33.121,70.025 33.217,70.221 33.314,70.318 
	33.803,70.318 33.9,70.123 34.002,69.93 34.098,69.732 34.098,69.539 34.197,69.345 34.684,69.345 34.879,69.441 35.072,69.539 
	35.072,69.732 34.971,69.831 34.779,69.93 34.779,70.025 34.586,70.123 34.586,70.221 34.488,70.415 34.68,70.514 34.68,70.902 
	34.877,71 35.654,71 35.846,70.902 36.336,70.902 36.725,70.707 36.826,70.707 36.922,70.902 37.119,71.098 37.215,71.292 
	37.215,71.486 37.119,71.583 37.018,71.779 37.119,71.875 37.309,72.07 37.41,72.167 37.309,72.266 37.119,72.459 36.826,72.559 
	36.338,72.559 36.143,72.655 36.143,72.85 36.244,72.947 36.436,73.239 36.338,73.434 36.143,73.531 36.047,73.531 35.949,73.824 
	36.141,74.018 36.242,74.213 36.338,74.408 37.41,74.408 37.799,74.311 38.092,74.604 38.48,74.992 38.582,75.188 38.771,75.188 
	38.967,75.382 38.967,75.577 39.064,75.869 39.064,75.966 39.26,76.161 39.357,76.258 39.551,76.355 39.844,76.646 39.941,76.939 
	39.357,77.134 39.26,77.037 39.064,77.037 38.875,77.134 38.678,77.232 38.387,77.232 38.191,77.329 37.801,77.816 37.607,78.205 
	37.51,78.691 37.314,79.18 37.125,79.568 36.73,80.152 36.438,80.641 36.049,81.127 35.758,81.614 35.66,82.003 35.559,82.393 
	35.463,82.684 35.463,83.561 35.365,83.659 35.264,83.756 35.074,83.756 34.779,83.854 34.586,83.951 34.391,84.145 34.199,84.34 
	34.098,84.438 33.908,84.438 33.713,84.34 33.518,84.243 33.326,84.34 33.131,84.438 33.035,84.729 32.934,84.827 32.742,84.924 
	32.547,85.021 32.451,85.021 32.348,85.119 32.252,85.217 32.252,85.509 32.348,85.703 32.641,85.996 33.035,86.093 33.424,86.287 
	33.715,86.385 33.813,86.482 33.813,86.58 33.621,86.97 33.621,87.262 33.813,87.555 34.008,87.65 34.299,87.748 34.396,87.748 
	34.689,87.943 35.082,88.04 36.432,88.04 36.629,88.332 36.725,88.527 36.92,88.723 37.504,88.917 37.504,89.307 37.408,89.6 
	37.213,90.184 37.115,90.572 37.115,91.156 37.213,91.449 37.213,92.423 37.408,92.813 37.6,93.104 37.793,93.396 37.988,93.688 
	38.281,94.078 38.281,94.467 38.18,94.759 38.18,94.954 38.959,95.246 39.057,95.246 39.158,95.343 39.254,95.441 39.449,95.732 
	39.449,95.83 39.547,96.122 39.645,96.316 39.744,96.512 39.938,96.707 40.328,96.707 40.717,96.609 41.109,96.609 41.301,96.512 
	41.402,96.512 41.5,96.415 41.695,96.316 41.885,96.122 41.986,96.122 42.279,96.415 42.279,96.902 42.469,96.999 42.572,96.999 
	42.762,97.096 42.863,97.096 42.863,97.193 43.156,97.389 43.055,97.486 43.055,97.682 42.957,97.875 42.957,97.973 42.762,98.266 
	42.572,98.654 42.469,98.85 42.279,98.945 42.084,99.336 42.084,99.725 42.18,99.92 42.473,100.115 42.574,100.213 42.867,100.309 
	42.963,100.408 43.061,100.602 42.963,100.797 42.672,100.991 42.574,101.186 42.574,101.381 42.766,101.576 43.057,101.77 
	43.158,101.868 43.451,102.16 43.641,102.063 43.934,102.16 44.225,102.16 44.518,102.257 44.619,102.452 44.715,102.646 
	44.813,102.744 44.915,102.842 45.104,102.939 45.206,103.036 45.688,103.036 45.884,102.842 45.884,102.646 46.081,102.549 
	46.175,102.452 46.667,102.452 46.763,102.549 46.862,102.549 47.056,102.744 47.153,102.744 47.255,102.939 47.546,103.036 
	47.935,103.134 48.226,103.134 48.519,103.036 48.714,103.23 49.103,103.426 49.298,103.523 49.786,103.718 50.079,103.814 
	50.269,103.814 50.37,103.718 50.37,103.426 50.468,103.328 50.37,103.036 50.468,102.842 50.563,102.744 50.665,102.646 
	50.856,102.549 51.05,102.646 51.05,102.744 51.147,102.842 51.249,102.842 51.44,102.939 51.542,102.939 51.731,102.842 
	51.833,102.646 51.931,102.452 51.833,102.257 51.833,102.063 51.731,101.77 51.636,101.479 51.538,101.381 51.437,101.284 
	51.146,101.381 50.954,101.576 50.759,101.576 50.663,101.381 50.562,101.186 50.562,100.991 50.663,100.895 50.663,100.797 
	50.853,100.699 51.048,100.699 51.243,100.602 51.341,100.504 51.341,100.408 51.437,100.309 51.437,99.725 51.632,99.725 
	52.216,99.92 52.704,100.116 52.896,100.214 53.187,100.409 53.382,100.505 53.577,100.604 53.868,100.895 54.257,101.09 
	54.841,101.382 55.134,101.577 55.622,101.771 56.302,101.869 56.886,101.771 57.374,101.869 57.667,101.869 58.054,102.063 
	58.347,102.258 58.739,102.55 59.032,102.843 59.323,103.037 59.514,103.232 59.909,103.622 60.391,104.107 60.493,104.303 
	60.786,104.595 61.174,104.79 61.959,104.79 62.055,104.693 62.348,104.79 62.739,104.79 63.032,104.595 63.129,104.4 
	63.227,104.206 63.327,104.011 63.424,103.816 63.327,103.622 63.034,103.232 63.034,102.745 63.133,102.55 63.717,102.258 
	63.911,102.258 64.104,102.161 64.299,101.966 64.395,101.674 64.59,101.382 64.688,101.09 64.59,100.798 64.59,100.505 
	64.395,100.214 64.202,100.018 64.301,99.628 64.399,99.434 64.499,99.044 64.305,98.559 64.012,98.167 63.721,97.779 
	63.526,97.391 63.428,97 63.428,96.514 63.329,95.831 63.329,95.637 63.229,95.344 63.133,95.053 63.229,94.857 63.229,94.176 
	63.133,93.98 63.133,93.495 63.229,93.396 63.522,93.007 63.913,92.423 64.206,92.229 64.305,91.838 64.403,91.546 64.596,91.157 
	64.792,90.768 64.983,90.477 65.469,89.893 65.567,89.697 65.86,89.6 66.25,89.501 66.444,89.307 66.545,89.209 66.737,89.111 
	66.836,89.016 67.321,88.82 67.905,88.625 68.297,88.432 68.782,88.234 69.073,87.848 69.172,87.749 69.657,87.457 70.049,87.066 
	70.534,86.581 71.02,85.997 71.313,85.605 71.506,85.314 71.897,84.924 71.995,84.632 72.188,84.34 72.481,83.854 72.676,83.563 
	72.772,82.979 72.967,82.393 72.967,82.102 73.065,81.614 73.165,81.227 73.165,81.03 73.262,80.736 73.262,80.445 73.555,80.25 
	73.456,79.667 73.456,79.277 73.846,79.277 74.04,79.18 74.333,79.18 74.432,79.277 74.625,79.375 74.917,79.568 75.112,79.667 
	75.403,79.764 75.596,79.667 75.792,79.667 76.083,79.473 76.274,79.277 76.471,79.277 76.665,79.375 76.665,79.473 76.762,79.667 
	77.055,79.764 77.346,79.764 77.639,79.667 78.223,79.667 78.709,79.568 78.807,79.568 78.905,79.473 79.1,79.473 79.293,79.375 
	79.391,79.375 79.586,79.277 79.778,78.984 79.877,78.791 79.975,78.595 79.975,78.498 80.17,78.107 80.17,78.011 80.268,77.914 
	80.377,77.816 80.571,77.816 80.668,77.718 80.768,77.622 80.866,77.427 80.866,76.842 81.059,76.746 81.059,76.646 81.159,76.55 
	81.159,76.258 81.254,76.258 81.254,76.161 81.356,76.063 81.454,75.966 81.454,75.869 81.549,75.674 81.649,75.577 81.842,75.382 
	82.038,75.188 82.135,75.09 82.235,74.992 82.528,74.895 82.917,74.895 83.014,74.992 83.209,74.992 83.307,75.09 83.5,75.09 
	83.598,75.188 83.991,75.09 83.991,74.992 84.186,74.895 84.186,74.798 84.377,74.505 84.67,74.505 84.77,74.7 84.961,74.896 
	85.059,75.09 85.159,75.188 85.256,75.382 85.452,75.577 85.549,75.577 85.745,75.674 85.938,75.869 86.036,75.869 86.133,75.966 
	86.327,75.966 86.424,76.063 86.62,76.162 87.208,76.162 87.303,76.063 87.303,75.966 87.405,75.966 87.502,75.869 87.7,75.869 
	87.797,75.771 87.895,75.674 87.995,75.674 88.09,75.577 88.19,75.674 88.29,75.674 88.29,75.771 88.387,75.771 88.387,75.869 
	88.682,75.869 88.682,75.674 88.782,75.674 88.782,75.577 88.879,75.577 88.977,75.479 89.077,75.382 "/>
<polygon id = "12" fill="none" stroke="#000000" points="136.247,80.84 136.247,80.937 136.442,81.132 136.54,81.229 136.733,81.326 
	137.026,81.617 137.124,81.91 136.54,82.104 136.442,82.008 136.247,82.008 136.057,82.104 135.86,82.203 135.569,82.203 
	135.374,82.3 134.983,82.787 134.79,83.176 134.692,83.662 134.497,84.15 134.307,84.539 133.913,85.123 133.62,85.611 
	133.231,86.098 132.94,86.585 132.842,86.974 132.741,87.363 132.645,87.654 132.645,88.531 132.547,88.63 132.446,88.727 
	132.256,88.727 131.961,88.824 131.768,88.922 131.573,89.115 131.381,89.311 131.28,89.408 131.09,89.408 130.895,89.311 
	130.7,89.214 130.508,89.311 130.313,89.408 130.217,89.699 130.116,89.798 129.924,89.895 129.729,89.992 129.633,89.992 
	129.53,90.09 129.434,90.188 129.434,90.479 129.53,90.674 129.823,90.967 130.217,91.063 130.606,91.258 130.897,91.355 
	130.995,91.453 130.995,91.551 130.803,91.94 130.803,92.232 130.995,92.525 131.19,92.621 131.481,92.719 131.579,92.719 
	131.872,92.914 132.264,93.011 133.614,93.011 133.811,93.303 133.907,93.498 134.102,93.693 134.686,93.888 134.686,94.277 
	134.59,94.57 134.395,95.154 134.297,95.543 134.297,96.127 134.395,96.42 134.395,97.394 134.59,97.783 134.782,98.074 
	134.975,98.367 135.17,98.658 135.463,99.049 135.463,99.438 135.362,99.729 135.362,99.925 136.141,100.217 136.239,100.217 
	136.34,100.313 136.436,100.412 136.631,100.703 136.631,100.801 136.729,101.093 136.827,101.287 136.926,101.482 137.12,101.678 
	137.51,101.678 137.899,101.58 138.292,101.58 138.483,101.482 138.584,101.482 138.682,101.386 138.877,101.287 139.067,101.093 
	139.168,101.093 139.461,101.386 139.461,101.873 139.651,101.97 139.754,101.97 139.944,102.066 140.045,102.066 140.045,102.164 
	140.338,102.359 140.237,102.457 140.237,102.652 140.139,102.846 140.139,102.943 139.944,103.236 139.754,103.625 139.651,103.82 
	139.461,103.916 139.266,104.307 139.266,104.695 139.362,104.891 139.655,105.086 139.756,105.184 140.049,105.279 
	140.145,105.379 140.243,105.572 140.145,105.768 139.854,105.962 139.756,106.156 139.756,106.352 139.948,106.547 140.239,106.74 
	140.34,106.839 140.633,107.131 140.823,107.033 141.116,107.131 141.407,107.131 141.7,107.228 141.801,107.423 141.897,107.617 
	141.995,107.715 142.096,107.813 142.286,107.91 142.387,108.007 142.87,108.007 143.065,107.813 143.065,107.617 143.262,107.52 
	143.356,107.423 143.848,107.423 143.944,107.52 144.043,107.52 144.237,107.715 144.334,107.715 144.436,107.91 144.727,108.007 
	145.116,108.104 145.407,108.104 145.7,108.007 145.895,108.201 146.284,108.396 146.479,108.494 146.967,108.688 147.26,108.785 
	147.45,108.785 147.551,108.688 147.551,108.396 147.649,108.299 147.551,108.007 147.649,107.813 147.745,107.715 147.846,107.617 
	148.038,107.52 148.231,107.617 148.231,107.715 148.329,107.813 148.43,107.813 148.622,107.91 148.723,107.91 148.913,107.813 
	149.014,107.617 149.112,107.423 149.014,107.228 149.014,107.033 148.913,106.74 148.817,106.449 148.719,106.352 148.618,106.255 
	148.327,106.352 148.135,106.547 147.94,106.547 147.844,106.352 147.743,106.156 147.743,105.962 147.844,105.865 147.844,105.768 
	148.034,105.67 148.229,105.67 148.424,105.572 148.522,105.475 148.522,105.379 148.618,105.279 148.618,104.695 148.813,104.695 
	149.397,104.891 149.885,105.087 150.077,105.185 150.368,105.38 150.563,105.476 150.758,105.574 151.049,105.865 151.438,106.061 
	152.022,106.353 152.315,106.548 152.803,106.742 153.483,106.84 154.067,106.742 154.555,106.84 154.848,106.84 155.235,107.033 
	155.528,107.229 155.92,107.521 156.213,107.813 156.504,108.008 156.696,108.203 157.09,108.593 157.573,109.078 157.674,109.273 
	157.967,109.565 158.356,109.761 159.141,109.761 159.237,109.664 159.53,109.761 159.92,109.761 160.213,109.565 160.311,109.371 
	160.409,109.177 160.508,108.981 160.606,108.787 160.508,108.593 160.215,108.203 160.215,107.716 160.315,107.521 
	160.899,107.229 161.092,107.229 161.286,107.132 161.481,106.937 161.577,106.645 161.772,106.353 161.87,106.061 161.772,105.769 
	161.772,105.476 161.577,105.185 161.383,104.988 161.483,104.599 161.581,104.404 161.68,104.015 161.487,103.529 161.194,103.138 
	160.903,102.75 160.708,102.361 160.61,101.971 160.61,101.484 160.51,100.802 160.51,100.607 160.411,100.314 160.315,100.023 
	160.411,99.828 160.411,99.146 160.315,98.951 160.315,98.466 160.411,98.367 160.704,97.978 161.094,97.394 161.387,97.199 
	161.487,96.809 161.584,96.517 161.778,96.128 161.973,95.738 162.165,95.447 162.651,94.863 162.749,94.668 163.042,94.57 
	163.432,94.472 163.625,94.277 163.727,94.18 163.918,94.082 164.018,93.986 164.502,93.791 165.086,93.596 165.479,93.402 
	165.963,93.205 166.254,92.818 166.354,92.72 166.838,92.428 167.231,92.037 167.715,91.552 168.202,90.968 168.495,90.576 
	168.688,90.285 169.079,89.895 169.176,89.603 169.37,89.311 169.663,88.824 169.858,88.533 169.954,87.949 170.149,87.363 
	170.149,87.072 170.247,86.585 170.346,86.197 170.346,86.001 170.444,85.707 170.444,85.416 170.737,85.221 170.637,84.638 
	170.637,84.248 171.028,84.248 171.221,84.15 171.514,84.15 171.614,84.248 171.807,84.346 172.098,84.539 172.293,84.638 
	172.584,84.734 172.778,84.638 172.973,84.638 173.264,84.443 173.456,84.248 173.653,84.248 173.846,84.346 173.846,84.443 
	173.944,84.638 174.237,84.734 174.528,84.734 174.821,84.638 175.405,84.638 175.891,84.539 175.989,84.539 176.086,84.443 
	176.282,84.443 176.475,84.346 176.573,84.346 176.768,84.248 176.959,83.955 177.059,83.762 177.157,83.565 177.157,83.469 
	177.352,83.078 177.352,82.981 177.45,82.885 177.559,82.787 177.752,82.787 177.85,82.688 177.95,82.593 178.047,82.397 
	178.047,81.813 178.241,81.717 178.241,81.617 178.34,81.521 178.34,81.229 178.436,81.229 178.436,81.132 178.538,81.033 
	178.635,80.937 178.635,80.84 178.731,80.645 178.831,80.548 179.024,80.353 179.219,80.158 179.317,80.061 179.417,79.963 
	179.709,79.865 180.098,79.865 180.196,79.963 180.391,79.963 180.489,80.061 180.682,80.061 180.78,80.158 181.172,80.061 
	181.172,79.963 181.368,79.865 181.368,79.769 181.559,79.476 181.852,79.476 181.952,79.671 182.143,79.867 182.241,80.061 
	182.34,80.158 182.438,80.353 182.633,80.548 182.731,80.548 182.926,80.645 183.12,80.84 183.217,80.84 183.315,80.937 
	183.508,80.937 183.606,81.033 183.801,81.133 184.389,81.133 184.485,81.033 184.485,80.937 184.586,80.937 184.684,80.84 
	184.881,80.84 184.979,80.742 185.077,80.645 185.176,80.645 185.272,80.548 185.372,80.645 185.471,80.645 185.471,80.742 
	185.569,80.742 185.569,80.84 185.864,80.84 185.864,80.645 185.963,80.645 185.963,80.548 186.061,80.548 186.159,80.449 
	186.258,80.353 186.159,80.255 186.061,80.255 185.963,80.353 185.864,80.255 185.766,80.158 185.766,79.867 185.864,79.769 
	185.864,79.574 185.766,79.476 185.569,79.476 185.569,79.574 185.471,79.574 185.471,79.671 185.276,79.769 185.18,79.769 
	185.081,79.671 184.981,79.769 184.883,79.867 184.786,79.769 184.786,79.379 184.883,79.379 184.883,79.281 184.981,79.184 
	184.981,79.087 185.081,78.988 184.981,78.795 184.883,78.795 184.786,78.892 184.686,78.988 184.686,79.184 184.59,79.281 
	184.489,79.184 184.391,79.087 184.391,78.988 184.293,78.988 184.293,78.795 184.096,78.795 184.096,78.697 184.194,78.6 
	184.293,78.502 184.391,78.404 184.489,78.404 184.59,78.308 184.59,78.21 184.489,78.113 184.391,78.113 184.293,78.016 
	184.194,77.918 184.194,77.529 184.096,77.529 183.999,77.431 183.999,77.236 183.508,77.236 183.12,77.139 182.827,77.139 
	182.34,77.041 181.657,76.555 181.465,76.457 181.172,76.361 180.78,76.166 180.098,75.971 179.417,75.971 178.831,75.775 
	178.346,75.58 177.76,75.58 177.469,75.775 177.176,75.971 176.885,75.873 176.69,75.873 176.497,75.678 176.303,75.58 
	176.206,75.484 176.012,75.386 175.817,75.386 175.426,75.289 174.842,74.996 174.356,75.094 173.967,74.9 174.063,74.51 
	174.063,74.218 173.872,74.121 173.772,74.022 173.674,73.926 173.577,73.828 173.383,73.73 173.188,73.73 172.895,73.926 
	172.702,74.022 172.508,74.218 172.311,74.218 172.118,73.828 172.02,73.828 171.827,73.438 171.727,73.244 171.534,73.05 
	171.34,72.758 171.241,72.465 171.241,72.367 171.143,72.367 171.143,71.978 170.95,71.686 170.657,71.589 170.85,70.81 
	170.95,70.518 171.143,70.129 171.338,69.445 171.338,69.154 171.143,68.765 171.143,68.57 171.045,68.277 171.237,67.207 
	171.237,66.525 171.338,66.232 171.53,65.94 171.823,65.551 171.922,65.259 172.114,65.063 172.409,64.967 172.506,64.967 
	172.895,64.869 173.188,64.675 173.674,64.091 173.868,63.799 174.061,62.923 175.424,58.248 174.45,58.053 173.672,58.053 
	173.28,58.15 172.11,58.443 171.721,58.638 170.844,58.638 "/>

	








<text id="name" x="350" y="600" style="font-family: sans-serif; font-size: 22pt; stroke: none; fill: black;"> </text>




<script type="text/ecmascript">

<![CDATA[

function loadResults() {

	getURL("../svg/circunscripciones.php",processResults);

	setTimeout("loadResults();",30000);

}

function showName(evt) {

	NewItem = svgDocument.createTextNode(evt.getTarget().getAttribute("name"))
	svgDocument.getElementById("name").replaceChild(NewItem, svgDocument.getElementById("name").getFirstChild())	

}

function processResults(data) {

	if (data.success) {
		
		node = parseXML(data.content,document);
		node = node.getFirstChild();
		nodeList=node.getChildNodes();
		
		for (i=0; i <= node.getChildNodes().getLength() - 1; i++) {
		
		if (svgDocument.getElementById(nodeList.item(i).getAttribute("id")))
			svgDocument.getElementById(nodeList.item(i).getAttribute("id")).setAttribute("fill",nodeList.item(i).getAttribute("winner"));


		}

		
	}
	else {
		alert('problemas con recibo de resultado');
	}
}



]]></script>

</svg>
