<?xml version="1.0" encoding="utf-8"?>
<!-- Generator: Adobe Illustrator 12.0.0, SVG Export Plug-In . SVG Version: 6.00 Build 51448)  -->
<!DOCTYPE svg PUBLIC "-//W3C//DTD SVG 1.1//EN" "http://www.w3.org/Graphics/SVG/1.1/DTD/svg11.dtd" [
	<!ENTITY ns_svg "http://www.w3.org/2000/svg">
	<!ENTITY ns_xlink "http://www.w3.org/1999/xlink">
]>
<svg  version="1.1" width="986" height="520" viewBox="25 0 950 520" overflow="visible" enable-background="new 0 0 986.188 520.903" xmlns="http://www.w3.org/2000/svg">



<line fill="none" stroke="#000000" stroke-width="0.6143" x1="84.016" y1="253.506" x2="84.016" y2="251.314"/>
<g>
	<path fill="none" stroke="#000000" stroke-miterlimit="3.864" d="M35.814,457.172c0-252.688,204.867-457.527,457.551-457.527
		c252.285,0,457.517,210.975,457.517,457.527 M93.501,457.172c0-222.398,180.315-402.68,402.708-402.68
		c222.388,0,402.676,180.282,402.676,402.68 M151.013,457.172c0-192.11,155.763-347.841,347.864-347.841
		c192.109,0,347.839,155.728,347.839,347.841 M208.982,457.172c0-160.094,129.808-289.871,289.891-289.871
		c160.094,0,289.866,129.777,289.866,289.871 M266.956,457.172c0-128.073,103.851-231.896,231.919-231.896
		c128.078,0,231.898,103.82,231.898,231.896"/>
</g>
<path id="4" fill="#CECBC6" stroke="#000000" stroke-width="0.25" stroke-miterlimit="3.864" d="M546.449,214.066
	c-0.125,1.19-1.191,2.051-2.375,1.924l-24.32-2.558c-1.187-0.125-2.047-1.189-1.92-2.374l2.326-22.168
	c0.129-1.187,1.188-2.046,2.373-1.924l24.318,2.559c1.189,0.124,2.049,1.188,1.927,2.377L546.449,214.066z M550.678,189.926
	c0.127-1.188-0.564-2.231-1.543-2.336c-0.979-0.103-1.872,0.779-1.997,1.965l-2.047,19.466c-0.126,1.189,0.569,2.231,1.546,2.336
	c0.979,0.103,1.869-0.779,1.996-1.963L550.678,189.926z M522.252,186.938c0.125-1.187-0.564-2.231-1.54-2.333
	c-0.978-0.101-1.872,0.77-1.997,1.965l-2.047,19.461c-0.125,1.185,0.567,2.233,1.545,2.332c0.982,0.104,1.871-0.773,1.995-1.962
	L522.252,186.938z M548.909,189.743c0.128-1.189-0.737-2.254-1.924-2.38l-24.124-2.532c-1.188-0.125-2.253,0.734-2.377,1.922
	l-0.26,2.445c-0.127,1.19,0.737,2.255,1.92,2.38l24.134,2.532c1.183,0.125,2.247-0.735,2.373-1.922L548.909,189.743z"/>
<path id="11" fill="#CECBC6" stroke="#000000" stroke-width="0.25" stroke-miterlimit="3.864" d="M550.58,154.966
	c-0.125,1.188-1.188,2.047-2.374,1.927l-24.313-2.56c-1.192-0.124-2.055-1.185-1.929-2.375l2.334-22.165
	c0.127-1.189,1.189-2.05,2.371-1.926l24.322,2.557c1.189,0.125,2.047,1.189,1.924,2.374L550.58,154.966z M554.813,130.825
	c0.128-1.188-0.568-2.232-1.548-2.337c-0.979-0.105-1.864,0.78-1.987,1.963l-2.048,19.464c-0.125,1.189,0.563,2.233,1.538,2.338
	c0.979,0.103,1.875-0.779,2-1.963L554.813,130.825z M526.387,127.836c0.127-1.19-0.565-2.236-1.545-2.336
	c-0.978-0.103-1.87,0.775-1.996,1.964l-2.045,19.463c-0.124,1.19,0.568,2.232,1.547,2.334c0.975,0.104,1.865-0.771,1.995-1.962
	L526.387,127.836z M553.041,130.639c0.123-1.188-0.737-2.256-1.924-2.375l-24.127-2.536c-1.19-0.127-2.254,0.739-2.374,1.923
	l-0.264,2.45c-0.124,1.188,0.737,2.252,1.929,2.374l24.125,2.532c1.188,0.129,2.246-0.735,2.37-1.923L553.041,130.639z"/>
<path id="19" fill="#CECBC6" stroke="#000000" stroke-width="0.25" stroke-miterlimit="3.864" d="M553.33,98.914
	c-0.121,1.191-1.188,2.048-2.375,1.926l-24.315-2.559c-1.188-0.124-2.048-1.189-1.921-2.378l2.331-22.164
	c0.122-1.191,1.188-2.047,2.376-1.923l24.317,2.555c1.188,0.124,2.045,1.186,1.924,2.378L553.33,98.914z M557.563,74.775
	c0.129-1.187-0.565-2.231-1.545-2.336c-0.979-0.104-1.869,0.774-1.994,1.964l-2.047,19.462c-0.12,1.189,0.568,2.236,1.548,2.336
	c0.98,0.102,1.865-0.777,1.991-1.962L557.563,74.775z M529.139,71.785c0.122-1.19-0.565-2.23-1.548-2.338
	c-0.978-0.102-1.868,0.775-1.993,1.964l-2.049,19.468c-0.124,1.182,0.566,2.229,1.546,2.334c0.981,0.099,1.871-0.778,1.994-1.964
	L529.139,71.785z M555.788,74.584c0.127-1.184-0.732-2.25-1.923-2.373l-24.126-2.538c-1.192-0.125-2.249,0.742-2.372,1.925
	l-0.26,2.449c-0.127,1.19,0.738,2.254,1.923,2.379l24.126,2.538c1.189,0.122,2.253-0.736,2.375-1.924L555.788,74.584z"/>
<path fill="none" stroke="#FFFFFF" stroke-width="0.348" stroke-miterlimit="3.864" d="M527.822,31.981
	c-0.123,1.19-1.018,2.065-1.994,1.963c-0.979-0.103-1.671-1.148-1.545-2.337l2.048-19.46c0.126-1.191,1.016-2.069,1.993-1.962
	c0.979,0.102,1.672,1.147,1.548,2.335L527.822,31.981z"/>
<path id="28" fill="#CECBC6" stroke="#000000" stroke-width="0.25" stroke-miterlimit="3.864" d="M556.992,43.677
	c-0.121,1.191-1.188,2.048-2.375,1.924l-24.315-2.559c-1.188-0.123-2.047-1.187-1.921-2.371l2.331-22.17
	c0.122-1.191,1.188-2.047,2.377-1.923l24.316,2.558c1.188,0.122,2.046,1.191,1.924,2.376L556.992,43.677z M561.224,19.538
	c0.127-1.186-0.565-2.231-1.546-2.338c-0.979-0.101-1.871,0.776-1.994,1.963l-2.047,19.466c-0.122,1.19,0.566,2.234,1.547,2.338
	c0.98,0.103,1.866-0.779,1.99-1.963L561.224,19.538z M532.801,16.55c0.122-1.188-0.565-2.232-1.548-2.336
	c-0.978-0.105-1.868,0.775-1.993,1.962l-2.047,19.46c-0.126,1.19,0.566,2.234,1.544,2.337c0.981,0.102,1.871-0.772,1.995-1.963
	L532.801,16.55z M559.45,19.349c0.126-1.188-0.732-2.249-1.923-2.375l-24.126-2.534c-1.192-0.125-2.25,0.736-2.373,1.925
	l-0.261,2.449c-0.125,1.193,0.738,2.254,1.924,2.378l24.125,2.539c1.189,0.123,2.254-0.735,2.377-1.924L559.45,19.349z"/>
<path id="5" fill="#CECBC6" stroke="#000000" stroke-width="0.25" stroke-miterlimit="3.864" d="M599.893,232.918
	c-0.409,1.122-1.65,1.695-2.771,1.288l-22.979-8.361c-1.122-0.417-1.694-1.652-1.294-2.771l7.633-20.943
	c0.402-1.123,1.646-1.703,2.769-1.292l22.981,8.359c1.118,0.415,1.698,1.653,1.291,2.772L599.893,232.918z M609.838,210.514
	c0.406-1.121-0.011-2.302-0.938-2.637c-0.925-0.338-2,0.304-2.412,1.423l-6.693,18.387c-0.4,1.127,0.02,2.307,0.938,2.643
	c0.924,0.335,2.006-0.306,2.411-1.423L609.838,210.514z M582.979,200.737c0.408-1.121-0.013-2.305-0.932-2.642
	c-0.927-0.334-2.005,0.305-2.414,1.423l-6.689,18.393c-0.403,1.119,0.016,2.302,0.941,2.634c0.916,0.341,1.998-0.297,2.408-1.419
	L582.979,200.737z M608.161,209.911c0.411-1.127-0.167-2.362-1.288-2.774l-22.795-8.298c-1.129-0.412-2.361,0.172-2.771,1.292
	l-0.844,2.316c-0.408,1.12,0.173,2.355,1.292,2.768l22.797,8.299c1.123,0.409,2.362-0.171,2.772-1.289L608.161,209.911z"/>
<path id="12" fill="#CECBC6" stroke="#000000" stroke-width="0.25" stroke-miterlimit="3.864" d="M597.73,166.572
	c-0.351,1.138-1.559,1.783-2.703,1.433l-23.378-7.15c-1.147-0.348-1.787-1.559-1.435-2.701l6.516-21.314
	c0.346-1.141,1.557-1.779,2.698-1.435l23.38,7.15c1.146,0.35,1.785,1.559,1.438,2.7L597.73,166.572z M606.488,143.677
	c0.351-1.14-0.129-2.295-1.068-2.586l0,0c-0.939-0.285-1.982,0.405-2.334,1.546l-5.716,18.712c-0.349,1.146,0.128,2.301,1.064,2.596
	c0.945,0.285,1.982-0.408,2.333-1.548L606.488,143.677z M579.153,135.321c0.352-1.138-0.131-2.301-1.068-2.587
	c-0.944-0.291-1.985,0.401-2.334,1.541l-5.722,18.722c-0.351,1.14,0.13,2.293,1.065,2.586c0.942,0.287,1.982-0.402,2.335-1.547
	L579.153,135.321z M604.788,143.159c0.346-1.144-0.298-2.35-1.438-2.701l-23.196-7.094c-1.143-0.347-2.354,0.292-2.7,1.436
	l-0.724,2.354c-0.342,1.144,0.303,2.349,1.438,2.701l23.199,7.095c1.142,0.346,2.352-0.291,2.703-1.433L604.788,143.159z"/>
<rect x="485.813" y="-11.93" fill="none" stroke="#FFFFFF" stroke-width="0.4448" stroke-miterlimit="3.864" width="25.841" height="249.565"/>
<path fill="#FFFFFF" d="M617.283,112.919c-0.354,1.141-1.396,1.832-2.335,1.543c-0.948-0.286-1.421-1.443-1.067-2.587l5.719-18.716
	c0.344-1.142,1.396-1.836,2.334-1.547l0,0c0.938,0.287,1.418,1.446,1.068,2.588L617.283,112.919z"/>
<path id="22" fill="#CECBC6" stroke="#000000" stroke-width="0.25" stroke-miterlimit="3.864" d="M708.73,162.464
	c-0.662,0.995-2.008,1.253-2.994,0.586l-20.273-13.675c-0.986-0.669-1.25-2.01-0.581-3l12.468-18.479
	c0.672-0.991,2.018-1.251,3.004-0.58l20.271,13.67c0.993,0.673,1.251,2.014,0.581,3.002L708.73,162.464z M723.807,143.137
	c0.668-0.989,0.55-2.237-0.27-2.789c-0.813-0.545-2.02-0.188-2.68,0.8l-10.952,16.224c-0.667,0.994-0.542,2.236,0.27,2.784l0,0
	c0.817,0.549,2.021,0.191,2.689-0.796L723.807,143.137z M700.113,127.153c0.668-0.991,0.547-2.236-0.271-2.784l0,0
	c-0.814-0.551-2.021-0.194-2.686,0.794l-10.938,16.225c-0.669,0.988-0.552,2.235,0.271,2.784c0.811,0.549,2.014,0.195,2.68-0.794
	L700.113,127.153z M722.327,142.143c0.669-0.986,0.409-2.329-0.576-3l-20.116-13.567c-0.985-0.669-2.329-0.407-2.995,0.58
	l-1.376,2.039c-0.672,0.999-0.412,2.341,0.577,3.002l20.114,13.571c0.99,0.667,2.338,0.407,3-0.579L722.327,142.143z"/>
<path id="29" fill="#CECBC6" stroke="#000000" stroke-width="0.25" stroke-miterlimit="3.864" d="M607.383,53.203
	c-0.273,1.161-1.433,1.886-2.595,1.619l-23.824-5.502c-1.169-0.267-1.894-1.433-1.62-2.595l5.016-21.715
	c0.27-1.164,1.432-1.887,2.596-1.618l23.824,5.502c1.164,0.271,1.895,1.433,1.613,2.596L607.383,53.203z M614.52,29.759
	c0.271-1.163-0.286-2.289-1.252-2.508c-0.948-0.217-1.947,0.544-2.223,1.706l-4.402,19.071c-0.269,1.162,0.289,2.285,1.25,2.507
	c0.953,0.221,1.947-0.54,2.229-1.706L614.52,29.759z M586.67,23.325c0.276-1.162-0.291-2.29-1.251-2.507
	c-0.957-0.222-1.949,0.54-2.219,1.708l-4.402,19.071c-0.271,1.163,0.287,2.286,1.25,2.505c0.952,0.22,1.953-0.54,2.229-1.706
	L586.67,23.325z M612.783,29.355c0.271-1.167-0.456-2.321-1.618-2.591l-23.636-5.461c-1.163-0.271-2.324,0.456-2.594,1.617
	l-0.553,2.4c-0.268,1.164,0.459,2.322,1.619,2.594l23.635,5.459c1.168,0.271,2.327-0.457,2.597-1.619L612.783,29.355z"/>
<path id="13" fill="#CECBC6" stroke="#000000" stroke-width="0.25" stroke-miterlimit="3.864" d="M639.334,186.619
	c-0.52,1.072-1.813,1.521-2.89,1.003l-21.978-10.723c-1.065-0.526-1.52-1.816-0.999-2.89l9.768-20.034
	c0.521-1.073,1.82-1.522,2.894-0.998l21.977,10.723c1.07,0.518,1.52,1.811,1,2.884L639.334,186.619z M651.563,165.386
	c0.521-1.067,0.231-2.29-0.646-2.726c-0.888-0.427-2.025,0.091-2.548,1.162l-8.574,17.593c-0.523,1.07-0.229,2.291,0.652,2.721
	c0.886,0.43,2.021-0.089,2.542-1.163L651.563,165.386z M625.881,152.849c0.516-1.071,0.225-2.29-0.662-2.723
	c-0.884-0.428-2.014,0.091-2.539,1.162l-8.579,17.59c-0.519,1.071-0.226,2.29,0.653,2.723h0.006
	c0.884,0.429,2.021-0.089,2.537-1.162L625.881,152.849z M649.967,164.604c0.521-1.074,0.075-2.369-1-2.896l-21.803-10.634
	c-1.068-0.521-2.37-0.079-2.891,0.991l-1.073,2.213c-0.521,1.075-0.079,2.374,0.995,2.893l21.803,10.635
	c1.068,0.528,2.364,0.08,2.892-0.991L649.967,164.604z"/>
<path id="21" fill="#CECBC6" stroke="#000000" stroke-width="0.25" stroke-miterlimit="3.864" d="M662.158,134.159
	c-0.521,1.069-1.817,1.516-2.896,0.999l-21.973-10.723c-1.068-0.521-1.521-1.816-0.999-2.89l9.771-20.034
	c0.521-1.072,1.813-1.521,2.893-0.996l21.977,10.717c1.068,0.519,1.521,1.814,0.997,2.889L662.158,134.159z M674.391,112.921
	c0.521-1.071,0.229-2.292-0.648-2.726l0,0c-0.886-0.427-2.028,0.092-2.549,1.162l-8.575,17.594c-0.521,1.071-0.229,2.291,0.65,2.721
	l0,0c0.886,0.429,2.027-0.091,2.549-1.161L674.391,112.921z M648.701,100.393c0.521-1.072,0.229-2.295-0.655-2.725
	c-0.884-0.427-2.021,0.094-2.544,1.163l-8.575,17.586c-0.521,1.074-0.229,2.295,0.651,2.724c0.887,0.43,2.022-0.087,2.545-1.16
	L648.701,100.393z M672.79,112.14c0.521-1.071,0.079-2.365-0.999-2.889l-21.803-10.636c-1.066-0.525-2.367-0.075-2.893,0.996
	l-1.078,2.211c-0.518,1.072-0.076,2.371,1.003,2.89l21.802,10.639c1.066,0.525,2.361,0.083,2.89-0.994L672.79,112.14z"/>
<path fill="#FFFFFF" d="M687.35,80.432c-0.521,1.071-1.666,1.592-2.546,1.165h-0.003c-0.885-0.432-1.172-1.651-0.649-2.727
	l8.575-17.589c0.525-1.072,1.666-1.592,2.549-1.161c0.886,0.427,1.174,1.647,0.651,2.721L687.35,80.432z"/>
<path id="32" fill="#CECBC6" stroke="#000000" stroke-width="0.25" stroke-miterlimit="3.864" d="M737.734,118.895
	c-0.666,0.988-2.006,1.251-2.995,0.58l-20.276-13.676c-0.99-0.668-1.25-2.012-0.58-3l12.462-18.481
	c0.67-0.99,2.007-1.246,2.995-0.58l20.271,13.678c0.99,0.664,1.254,2.012,0.582,3L737.734,118.895z M752.797,99.567
	c0.673-0.991,0.557-2.234-0.265-2.785c-0.815-0.547-2.017-0.19-2.688,0.799l-10.938,16.221c-0.665,0.994-0.55,2.236,0.269,2.785
	c0.817,0.553,2.017,0.195,2.687-0.796L752.797,99.567z M729.107,83.58c0.668-0.992,0.55-2.238-0.271-2.785
	c-0.811-0.549-2.014-0.189-2.686,0.8l-10.938,16.22c-0.671,0.995-0.551,2.238,0.271,2.786h0.004c0.808,0.553,2.014,0.19,2.683-0.796
	L729.107,83.58z M751.328,98.57c0.663-0.988,0.408-2.33-0.58-2.999l-20.111-13.566c-0.991-0.669-2.334-0.402-3.001,0.582
	l-1.378,2.036c-0.662,0.997-0.405,2.336,0.584,2.996l20.108,13.571c0.993,0.672,2.337,0.408,3.001-0.582L751.328,98.57z"/>
<path id="3" fill="#CECBC6" stroke="#000000" stroke-width="0.25" stroke-miterlimit="3.864" d="M449.644,193.063
	c-0.125-1.193,0.736-2.249,1.928-2.374l24.314-2.559c1.19-0.125,2.248,0.739,2.373,1.921l2.337,22.168
	c0.124,1.189-0.735,2.254-1.922,2.373l-24.32,2.555c-1.189,0.125-2.255-0.733-2.377-1.92L449.644,193.063z M449.789,210.554
	c0.123,1.189,1.017,2.063,1.997,1.965c0.979-0.102,1.667-1.15,1.542-2.338l-2.046-19.464c-0.124-1.187-1.018-2.065-1.993-1.963
	c-0.979,0.1-1.672,1.147-1.548,2.34L449.789,210.554z M478.215,207.567c0.125,1.185,1.018,2.066,1.993,1.963
	c0.977-0.104,1.672-1.147,1.547-2.339l-2.045-19.461c-0.125-1.188-1.016-2.069-1.992-1.969c-0.979,0.104-1.672,1.153-1.545,2.341
	L478.215,207.567z M449.77,193.352c0.124,1.187,1.192,2.047,2.382,1.924l24.126-2.534c1.188-0.124,2.045-1.189,1.923-2.377
	l-0.258-2.447c-0.127-1.188-1.193-2.045-2.378-1.923l-24.124,2.534c-1.192,0.124-2.053,1.193-1.927,2.373L449.77,193.352z"/>
<path id="10" fill="#CECBC6" stroke="#000000" stroke-width="0.25" stroke-miterlimit="3.864" d="M448.804,129.569
	c-0.127-1.19,0.735-2.252,1.922-2.377l24.325-2.563c1.188-0.124,2.249,0.744,2.374,1.926l2.331,22.171
	c0.124,1.187-0.738,2.246-1.925,2.374l-24.318,2.552c-1.192,0.125-2.253-0.733-2.379-1.921L448.804,129.569z M448.951,147.053
	c0.125,1.191,1.018,2.068,1.997,1.97c0.976-0.104,1.666-1.151,1.539-2.338l-2.045-19.464c-0.123-1.189-1.018-2.065-1.996-1.962
	c-0.979,0.097-1.667,1.145-1.544,2.334L448.951,147.053z M477.375,144.069c0.127,1.182,1.02,2.066,1.998,1.958
	c0.977-0.101,1.666-1.147,1.542-2.334l-2.047-19.465c-0.127-1.184-1.02-2.063-1.994-1.962c-0.977,0.102-1.672,1.147-1.549,2.335
	L477.375,144.069z M448.932,129.854c0.125,1.193,1.19,2.05,2.375,1.925l24.133-2.532c1.188-0.125,2.046-1.19,1.923-2.379
	l-0.261-2.446c-0.129-1.19-1.191-2.05-2.378-1.922l-24.127,2.532c-1.188,0.125-2.047,1.189-1.924,2.373L448.932,129.854z"/>
<path id="18" fill="#CECBC6" stroke="#000000" stroke-width="0.25" stroke-miterlimit="3.864" d="M446.79,73.869
	c-0.123-1.184,0.735-2.249,1.922-2.376l24.323-2.553c1.188-0.129,2.249,0.733,2.377,1.923l2.33,22.167
	c0.126,1.184-0.733,2.248-1.924,2.374l-24.317,2.558c-1.188,0.126-2.248-0.739-2.373-1.922L446.79,73.869z M446.936,91.364
	c0.128,1.184,1.019,2.066,1.993,1.963c0.979-0.104,1.667-1.148,1.548-2.338l-2.046-19.466c-0.124-1.188-1.015-2.061-1.995-1.962
	c-0.975,0.102-1.672,1.148-1.544,2.334L446.936,91.364z M475.362,88.374c0.127,1.189,1.014,2.066,1.99,1.965
	c0.979-0.098,1.672-1.147,1.549-2.336l-2.044-19.465c-0.125-1.187-1.017-2.066-1.993-1.964c-0.978,0.101-1.669,1.15-1.544,2.342
	L475.362,88.374z M446.917,74.16c0.126,1.188,1.191,2.05,2.373,1.924l24.13-2.535c1.191-0.125,2.046-1.188,1.924-2.374l-0.258-2.449
	c-0.124-1.184-1.188-2.046-2.374-1.922l-24.129,2.536c-1.188,0.125-2.046,1.19-1.925,2.377L446.917,74.16z"/>
<path fill="#FFFFFF" d="M442.679,14.209c0.318-0.257,0.705-0.428,1.144-0.471l24.127-2.54c0.438-0.042,0.854,0.044,1.216,0.229
	c0.258-0.249,0.578-0.417,0.937-0.453c0.979-0.101,1.874,0.776,1.994,1.964l2.046,19.465c0.121,1.147-0.523,2.165-1.448,2.322
	l0.279,2.706c0.126,1.188-0.731,2.25-1.922,2.376l-24.318,2.559c-1.19,0.124-2.246-0.735-2.372-1.925l-0.287-2.708
	c-0.938,0.036-1.777-0.824-1.896-1.974l-2.047-19.461c-0.129-1.189,0.566-2.231,1.543-2.335
	C442.029,13.921,442.381,14.019,442.679,14.209"/>
<path fill="#FFFFFF" d="M470.599,32.773c0.127,1.188,1.016,2.067,1.992,1.964c0.98-0.105,1.671-1.149,1.548-2.338l-2.046-19.466
	c-0.124-1.187-1.015-2.064-1.994-1.963c-0.975,0.104-1.669,1.147-1.542,2.34L470.599,32.773z"/>
<path id="27" fill="#CECBC6" stroke="#000000" stroke-width="0.25" stroke-miterlimit="3.864" d="M443.495,16.802
	c-0.124-1.187,0.735-2.247,1.922-2.375l24.322-2.556c1.186-0.125,2.249,0.735,2.375,1.921l2.33,22.168
	c0.128,1.187-0.733,2.248-1.924,2.377l-24.315,2.555c-1.188,0.127-2.248-0.734-2.375-1.921L443.495,16.802z M443.637,34.294
	c0.126,1.191,1.02,2.068,1.994,1.968c0.979-0.105,1.667-1.147,1.549-2.341l-2.046-19.463c-0.124-1.19-1.017-2.066-1.997-1.963
	c-0.975,0.102-1.67,1.145-1.542,2.334L443.637,34.294z M472.064,31.309c0.128,1.188,1.014,2.066,1.989,1.963
	c0.98-0.104,1.671-1.148,1.549-2.337l-2.046-19.466c-0.124-1.186-1.015-2.063-1.992-1.962c-0.977,0.102-1.671,1.147-1.542,2.34
	L472.064,31.309z M443.622,17.094c0.125,1.188,1.19,2.046,2.372,1.922l24.131-2.532c1.19-0.126,2.046-1.191,1.922-2.375
	l-0.257-2.447c-0.124-1.189-1.19-2.047-2.374-1.924l-24.129,2.538c-1.188,0.124-2.046,1.188-1.922,2.377L443.622,17.094z"/>
<path id="2" fill="#CECBC6" stroke="#000000" stroke-width="0.25" stroke-miterlimit="3.864" d="M396.185,207.438
	c-0.351-1.14,0.293-2.347,1.437-2.698l23.38-7.154c1.142-0.35,2.35,0.298,2.701,1.434l6.516,21.32
	c0.353,1.136-0.299,2.346-1.434,2.697l-23.385,7.146c-1.146,0.349-2.353-0.291-2.699-1.434L396.185,207.438z M399.668,224.579
	c0.344,1.145,1.391,1.836,2.329,1.546c0.94-0.284,1.421-1.443,1.067-2.586l-5.722-18.72c-0.35-1.139-1.396-1.832-2.341-1.547
	c-0.936,0.287-1.413,1.445-1.066,2.592L399.668,224.579z M427.002,216.223c0.342,1.14,1.392,1.836,2.336,1.543
	c0.938-0.285,1.414-1.443,1.066-2.591l-5.716-18.711c-0.349-1.142-1.396-1.833-2.343-1.547c-0.938,0.29-1.417,1.445-1.065,2.588
	L427.002,216.223z M396.368,207.697c0.341,1.141,1.555,1.785,2.698,1.434l23.2-7.095c1.143-0.346,1.781-1.56,1.436-2.701
	l-0.713-2.356c-0.352-1.14-1.56-1.779-2.7-1.434l-23.205,7.1c-1.139,0.345-1.783,1.556-1.434,2.701L396.368,207.697z"/>
<path id="9" fill="#CECBC6" stroke="#000000" stroke-width="0.25" stroke-miterlimit="3.864" d="M400.972,140.278
	c-0.285-1.16,0.42-2.329,1.575-2.62l23.726-5.915c1.157-0.293,2.335,0.415,2.616,1.568l5.396,21.632
	c0.29,1.157-0.415,2.334-1.571,2.62l-23.724,5.918c-1.161,0.291-2.334-0.415-2.623-1.571L400.972,140.278z M403.55,157.579
	c0.291,1.162,1.3,1.909,2.252,1.669c0.953-0.237,1.494-1.367,1.2-2.526l-4.729-18.986c-0.284-1.161-1.301-1.905-2.25-1.668
	c-0.954,0.236-1.495,1.372-1.203,2.531L403.55,157.579z M431.286,150.661c0.286,1.159,1.296,1.904,2.248,1.665
	c0.953-0.235,1.496-1.367,1.204-2.526l-4.735-18.985c-0.285-1.16-1.296-1.904-2.25-1.666c-0.949,0.236-1.495,1.368-1.202,2.525
	L431.286,150.661z M401.141,140.55c0.283,1.159,1.462,1.861,2.617,1.574l23.541-5.875c1.16-0.285,1.864-1.461,1.572-2.619
	l-0.596-2.387c-0.284-1.16-1.467-1.865-2.615-1.575l-23.542,5.876c-1.16,0.284-1.864,1.458-1.574,2.617L401.141,140.55z"/>
<path id="16" fill="#CECBC6" stroke="#000000" stroke-width="0.25" stroke-miterlimit="3.864" d="M339.326,104.145
	c-0.427-1.114,0.13-2.364,1.244-2.793l22.828-8.759c1.117-0.429,2.36,0.127,2.787,1.244l7.993,20.81
	c0.427,1.114-0.133,2.36-1.25,2.792l-22.827,8.767c-1.121,0.426-2.367-0.125-2.795-1.25L339.326,104.145z M343.992,121.002
	c0.43,1.119,1.52,1.736,2.439,1.382c0.914-0.351,1.313-1.538,0.887-2.651l-7.019-18.275c-0.427-1.114-1.518-1.737-2.436-1.38
	c-0.919,0.348-1.317,1.538-0.887,2.655L343.992,121.002z M370.678,110.759c0.431,1.12,1.521,1.74,2.438,1.381
	c0.919-0.354,1.313-1.541,0.885-2.655l-7.01-18.272c-0.425-1.118-1.521-1.741-2.44-1.38c-0.919,0.354-1.313,1.542-0.884,2.656
	L370.678,110.759z M339.528,104.395c0.425,1.112,1.679,1.67,2.789,1.249l22.65-8.699c1.113-0.43,1.669-1.679,1.245-2.796
	l-0.885-2.295c-0.427-1.118-1.68-1.665-2.792-1.239l-22.65,8.692c-1.109,0.429-1.672,1.682-1.244,2.793L339.528,104.395z"/>
<path id="1" fill="#CECBC6" stroke="#000000" stroke-width="0.25" stroke-miterlimit="3.864" d="M345.985,234.974
	c-0.637-1.011-0.324-2.349,0.69-2.979l20.731-12.964c1.013-0.636,2.349-0.324,2.978,0.686l11.813,18.905
	c0.638,1.012,0.325,2.352-0.688,2.979l-20.729,12.96c-1.01,0.638-2.351,0.322-2.977-0.687L345.985,234.974z M353.782,250.625
	c0.631,1.017,1.821,1.414,2.656,0.894c0.824-0.52,0.995-1.762,0.357-2.775l-10.369-16.6c-0.635-1.013-1.818-1.408-2.653-0.886
	c-0.834,0.515-0.998,1.765-0.364,2.776L353.782,250.625z M378.018,235.482c0.641,1.011,1.819,1.406,2.655,0.886
	c0.83-0.517,0.995-1.768,0.364-2.775l-10.369-16.597c-0.636-1.015-1.822-1.406-2.656-0.892c-0.827,0.525-0.995,1.768-0.361,2.779
	L378.018,235.482z M346.226,235.176c0.637,1.011,1.97,1.317,2.978,0.688l20.576-12.857c1.008-0.635,1.318-1.971,0.686-2.979
	l-1.306-2.089c-0.636-1.013-1.969-1.32-2.979-0.689l-20.566,12.858c-1.018,0.633-1.321,1.968-0.691,2.981L346.226,235.176z"/>
<path id="7" fill="#CECBC6" stroke="#000000" stroke-width="0.25" stroke-miterlimit="3.864" d="M314.084,184.243
	c-0.635-1.011-0.324-2.348,0.688-2.983l20.734-12.96c1.01-0.636,2.344-0.324,2.977,0.689l11.812,18.902
	c0.636,1.009,0.329,2.345-0.684,2.975l-20.735,12.958c-1.015,0.638-2.346,0.327-2.985-0.684L314.084,184.243z M321.881,199.897
	c0.636,1.008,1.823,1.408,2.656,0.885l0,0c0.832-0.519,0.998-1.763,0.364-2.774l-10.371-16.597
	c-0.628-1.016-1.822-1.411-2.655-0.891c-0.833,0.526-1.001,1.768-0.364,2.778L321.881,199.897z M346.119,184.748
	c0.633,1.01,1.823,1.407,2.656,0.887c0.833-0.52,0.998-1.763,0.362-2.777l-10.369-16.594c-0.63-1.014-1.818-1.411-2.653-0.889
	c-0.832,0.525-0.996,1.765-0.361,2.778L346.119,184.748z M314.322,184.447c0.638,1.009,1.97,1.315,2.979,0.686l20.573-12.858
	c1.01-0.635,1.316-1.965,0.686-2.98l-1.305-2.088c-0.632-1.009-1.966-1.319-2.975-0.685l-20.574,12.858
	c-1.01,0.633-1.319,1.968-0.688,2.979L314.322,184.447z"/>
<path id="15" fill="#CECBC6" stroke="#000000" stroke-width="0.25" stroke-miterlimit="3.864" d="M287.674,131.245
	c-0.595-1.038-0.241-2.356,0.796-2.957l21.171-12.226c1.038-0.594,2.356-0.243,2.953,0.793l11.146,19.3
	c0.599,1.04,0.244,2.358-0.795,2.958l-21.172,12.225c-1.037,0.598-2.357,0.243-2.952-0.791L287.674,131.245z M294.919,147.167
	c0.595,1.036,1.771,1.471,2.623,0.981c0.85-0.495,1.062-1.73,0.461-2.759l-9.783-16.953c-0.599-1.038-1.776-1.474-2.627-0.981
	c-0.852,0.494-1.059,1.729-0.459,2.76L294.919,147.167z M319.673,132.873c0.6,1.031,1.775,1.47,2.624,0.979
	c0.856-0.492,1.057-1.729,0.462-2.759l-9.789-16.953c-0.591-1.031-1.769-1.472-2.619-0.977l0,0c-0.854,0.49-1.059,1.726-0.461,2.76
	L319.673,132.873z M287.906,131.46c0.6,1.034,1.922,1.39,2.958,0.792l21.007-12.132c1.037-0.597,1.39-1.916,0.795-2.953l-1.23-2.134
	c-0.599-1.038-1.922-1.394-2.95-0.795l-21.008,12.134c-1.037,0.597-1.395,1.915-0.796,2.953L287.906,131.46z"/>
<path fill="none" stroke="#FFFFFF" stroke-width="0.348" stroke-miterlimit="3.864" d="M362.931,55.665
	c0.353,1.146,1.396,1.832,2.335,1.548c0.942-0.286,1.418-1.444,1.067-2.588l-5.721-18.713c-0.354-1.138-1.401-1.833-2.335-1.548
	c-0.946,0.287-1.422,1.446-1.067,2.589L362.931,55.665z"/>
<path id="25" fill="#CECBC6" stroke="#000000" stroke-width="0.25" stroke-miterlimit="3.864" d="M350.162,39.072
	c-0.354-1.141,0.286-2.349,1.433-2.7l23.387-7.15c1.146-0.349,2.35,0.292,2.7,1.436l6.517,21.316
	c0.347,1.139-0.293,2.35-1.437,2.695l-23.379,7.154c-1.145,0.348-2.353-0.292-2.704-1.434L350.162,39.072z M353.643,56.214
	c0.343,1.141,1.395,1.832,2.334,1.543l0,0c0.941-0.284,1.417-1.447,1.07-2.59l-5.719-18.715c-0.354-1.139-1.396-1.832-2.335-1.548
	c-0.942,0.286-1.422,1.445-1.071,2.592L353.643,56.214z M380.974,47.85c0.353,1.145,1.396,1.832,2.337,1.549
	c0.94-0.286,1.421-1.444,1.067-2.588l-5.721-18.715c-0.348-1.136-1.396-1.831-2.336-1.545c-0.941,0.285-1.417,1.446-1.068,2.589
	L380.974,47.85z M350.341,39.329c0.347,1.142,1.559,1.785,2.699,1.434l23.2-7.092c1.142-0.351,1.786-1.557,1.434-2.702l-0.715-2.354
	c-0.35-1.139-1.556-1.78-2.703-1.434l-23.203,7.097c-1.135,0.346-1.783,1.557-1.431,2.698L350.341,39.329z"/>
<path id="23" fill="#CECBC6" stroke="#000000" stroke-width="0.25" stroke-miterlimit="3.864" d="M257.679,82.23
	c-0.556-1.05-0.16-2.358,0.897-2.92l21.588-11.481c1.052-0.562,2.358-0.156,2.924,0.894L293.553,88.4
	c0.561,1.05,0.159,2.358-0.891,2.923l-21.59,11.478c-1.052,0.565-2.36,0.167-2.924-0.892L257.679,82.23z M264.368,98.398
	c0.562,1.05,1.72,1.53,2.586,1.069l0,0c0.872-0.458,1.119-1.687,0.557-2.751l-9.187-17.271c-0.563-1.058-1.719-1.534-2.586-1.074
	c-0.872,0.458-1.119,1.692-0.558,2.743L264.368,98.398z M289.603,84.974c0.562,1.05,1.721,1.529,2.588,1.068
	c0.869-0.459,1.117-1.688,0.555-2.748l-9.187-17.279c-0.559-1.051-1.719-1.529-2.586-1.071c-0.866,0.464-1.119,1.689-0.554,2.744
	L289.603,84.974z M257.909,82.451c0.562,1.058,1.87,1.459,2.924,0.898l21.421-11.389c1.052-0.561,1.455-1.869,0.894-2.927
	l-1.156-2.172c-0.562-1.052-1.87-1.447-2.924-0.891l-21.42,11.386c-1.053,0.564-1.458,1.875-0.896,2.927L257.909,82.451z"/>
<path fill="#FFFFFF" d="M414.468,43.562c0.246,1.169,1.228,1.951,2.188,1.745c0.959-0.208,1.536-1.318,1.292-2.484l-4.063-19.146
	c-0.25-1.166-1.231-1.95-2.19-1.744c-0.958,0.208-1.538,1.319-1.292,2.484L414.468,43.562z"/>
<path id="26" fill="#CECBC6" stroke="#000000" stroke-width="0.25" stroke-miterlimit="3.864" d="M395.129,25.73
	c-0.245-1.169,0.498-2.317,1.667-2.564l23.913-5.083c1.172-0.246,2.318,0.495,2.568,1.665l4.634,21.805
	c0.245,1.165-0.498,2.315-1.669,2.564l-23.918,5.085c-1.165,0.242-2.313-0.502-2.564-1.667L395.129,25.73z M397.101,43.106
	c0.25,1.168,1.23,1.954,2.191,1.742c0.959-0.203,1.539-1.313,1.294-2.479l-4.063-19.141c-0.248-1.171-1.232-1.951-2.191-1.746l0,0
	c-0.961,0.208-1.539,1.315-1.292,2.486L397.101,43.106z M425.063,37.165c0.247,1.169,1.227,1.951,2.189,1.744
	c0.954-0.206,1.536-1.319,1.289-2.482l-4.063-19.144c-0.249-1.172-1.23-1.952-2.19-1.745c-0.959,0.207-1.54,1.316-1.293,2.484
	L425.063,37.165z M395.287,25.999c0.25,1.173,1.396,1.916,2.568,1.667l23.724-5.043c1.173-0.248,1.917-1.393,1.667-2.564
	l-0.511-2.411c-0.249-1.172-1.401-1.915-2.565-1.664l-23.732,5.044c-1.165,0.249-1.912,1.396-1.658,2.564L395.287,25.999z"/>
<path fill="#FFFFFF" d="M663.935,70.481c-0.446,1.108-1.552,1.708-2.468,1.34c-0.91-0.367-1.281-1.563-0.84-2.67l7.335-18.147
	c0.45-1.108,1.55-1.708,2.465-1.337c0.907,0.366,1.284,1.563,0.839,2.667L663.935,70.481z"/>
<path id="30" fill="#CECBC6" stroke="#000000" stroke-width="0.25" stroke-miterlimit="3.864" d="M652.51,70.079
	c-0.441,1.106-1.702,1.639-2.813,1.19l-22.672-9.161c-1.108-0.445-1.643-1.708-1.189-2.813l8.352-20.667
	c0.445-1.105,1.707-1.642,2.813-1.191l22.675,9.159c1.111,0.449,1.643,1.708,1.191,2.815L652.51,70.079z M663.234,48.032
	c0.441-1.104,0.064-2.301-0.845-2.667c-0.908-0.369-2.013,0.229-2.462,1.339l-7.33,18.148c-0.447,1.106-0.07,2.301,0.843,2.667
	c0.906,0.371,2.015-0.23,2.461-1.34L663.234,48.032z M636.731,37.325c0.447-1.107,0.067-2.302-0.842-2.668
	c-0.914-0.372-2.015,0.232-2.464,1.339l-7.33,18.149c-0.447,1.108-0.071,2.302,0.832,2.667c0.915,0.37,2.021-0.231,2.474-1.338
	L636.731,37.325z M661.586,47.37c0.444-1.111-0.092-2.369-1.195-2.815l-22.488-9.089c-1.11-0.445-2.369,0.09-2.815,1.196
	l-0.917,2.282c-0.45,1.108,0.086,2.369,1.19,2.813l22.497,9.09c1.104,0.445,2.367-0.09,2.813-1.194L661.586,47.37z"/>
<path fill="#FFFFFF" d="M570.693,99.32c-0.246,1.17-1.227,1.95-2.193,1.745c-0.958-0.205-1.538-1.319-1.29-2.484l4.073-19.144
	c0.246-1.167,1.226-1.949,2.187-1.742c0.96,0.204,1.536,1.314,1.292,2.488L570.693,99.32z"/>
<path id="20" fill="#CECBC6" stroke="#000000" stroke-width="0.25" stroke-miterlimit="3.864" d="M612.418,113.124
	c-0.306,1.157-1.493,1.841-2.646,1.529l-23.62-6.329c-1.154-0.305-1.836-1.495-1.523-2.648l5.769-21.528
	c0.313-1.154,1.495-1.838,2.647-1.527l23.619,6.325c1.155,0.309,1.836,1.498,1.528,2.648L612.418,113.124z M620.374,89.944
	c0.308-1.151-0.215-2.295-1.162-2.55c-0.947-0.254-1.974,0.476-2.282,1.629l-5.063,18.901c-0.313,1.154,0.213,2.292,1.158,2.548
	c0.954,0.254,1.977-0.473,2.281-1.629L620.374,89.944z M592.763,82.546c0.313-1.156-0.21-2.292-1.153-2.55
	c-0.951-0.256-1.978,0.471-2.282,1.624l-5.064,18.906c-0.313,1.15,0.214,2.291,1.158,2.546c0.948,0.255,1.974-0.471,2.282-1.628
	L592.763,82.546z M618.655,89.477c0.308-1.149-0.386-2.335-1.528-2.644l-23.438-6.28c-1.147-0.305-2.34,0.375-2.648,1.529
	l-0.637,2.377c-0.312,1.151,0.374,2.342,1.527,2.645l23.432,6.282c1.15,0.31,2.342-0.375,2.646-1.528L618.655,89.477z"/>
<path id="17" fill="#CECBC6" stroke="#000000" stroke-width="0.25" stroke-miterlimit="3.864" d="M391.811,86.447
	c-0.31-1.155,0.373-2.342,1.528-2.652l23.618-6.325c1.15-0.307,2.337,0.38,2.647,1.528l5.769,21.533
	c0.309,1.15-0.379,2.337-1.532,2.649l-23.618,6.326c-1.148,0.309-2.343-0.379-2.646-1.529L391.811,86.447z M394.693,103.701
	c0.305,1.152,1.324,1.88,2.276,1.629l0,0c0.947-0.257,1.471-1.392,1.158-2.55l-5.063-18.904c-0.314-1.15-1.33-1.88-2.283-1.623
	c-0.946,0.253-1.467,1.394-1.162,2.544L394.693,103.701z M422.298,96.3c0.315,1.16,1.329,1.887,2.282,1.631
	c0.948-0.256,1.47-1.396,1.16-2.547l-5.064-18.906c-0.308-1.152-1.328-1.883-2.282-1.625c-0.944,0.253-1.465,1.394-1.158,2.545
	L422.298,96.3z M391.982,86.714c0.31,1.151,1.491,1.84,2.646,1.528l23.438-6.28c1.153-0.312,1.834-1.497,1.526-2.652l-0.639-2.377
	c-0.313-1.155-1.495-1.839-2.654-1.529l-23.435,6.279c-1.153,0.307-1.84,1.495-1.531,2.65L391.982,86.714z"/>
<path id="6" fill="#CECBC6" stroke="#000000" stroke-width="0.25" stroke-miterlimit="3.864" d="M645.127,259.32
	c-0.651,1.003-1.985,1.283-2.991,0.637l-20.508-13.317c-1.004-0.647-1.284-1.987-0.639-2.993l12.14-18.696
	c0.653-1.005,1.988-1.286,2.993-0.639l20.501,13.319c1.008,0.654,1.285,1.996,0.642,2.993L645.127,259.32z M659.854,239.728
	c0.652-1,0.518-2.244-0.313-2.776c-0.82-0.54-2.019-0.163-2.667,0.836l-10.659,16.42c-0.646,1.001-0.508,2.246,0.318,2.778
	c0.82,0.532,2.013,0.156,2.669-0.843L659.854,239.728z M635.885,224.159c0.652-1.001,0.513-2.245-0.313-2.783
	c-0.825-0.534-2.02-0.153-2.671,0.849l-10.656,16.412c-0.651,1.008-0.516,2.248,0.314,2.783l0,0
	c0.824,0.537,2.017,0.156,2.664-0.845L635.885,224.159z M658.365,238.755c0.646-0.998,0.365-2.339-0.64-2.984l-20.351-13.214
	c-1.004-0.652-2.34-0.369-2.993,0.632l-1.338,2.065c-0.653,1.004-0.366,2.342,0.64,2.989l20.348,13.217
	c1.01,0.65,2.342,0.369,2.993-0.641L658.365,238.755z"/>
<polygon fill="none" stroke="#ECEBF0" stroke-width="0.2493" stroke-miterlimit="3.864" points="627.903,270.674 630.097,278.7 
	628.851,278.7 627.429,274.213 "/>
<polygon fill="#FFFFFF" points="627.903,270.674 630.097,278.7 628.851,278.7 627.429,274.213 "/>
<ellipse fill="none" stroke="#ECEBF0" stroke-width="0.2493" stroke-miterlimit="3.864" cx="629.622" cy="279.65" rx="0.554" ry="0.896"/>
<path fill="#FFFFFF" d="M629.07,279.647c0-0.495,0.253-0.895,0.552-0.895c0.308,0,0.554,0.396,0.554,0.895s-0.242,0.898-0.554,0.898
	C629.322,280.545,629.07,280.146,629.07,279.647"/>
<g>
	<path id="path4066" fill="none" stroke="#000000" stroke-width="0.25" stroke-miterlimit="3.864" d="M367.748,442.991l0.025-107.24
		c0-12.946,10.497-23.438,23.438-23.438h220.071c12.948,0,23.424,10.492,23.424,23.438v109.258 M396.363,342.774
		c13.388-8.493,80.396-13.9,102.807-13.9c23.604,0,92.631,5.987,105.971,15.283v99.854H396.143L396.363,342.774z"/>
	<path id="path4068" fill="none" stroke="#000000" stroke-width="0.25" stroke-miterlimit="3.864" d="M373.887,444.135
		l0.027-102.367c0-11.995,9.735-21.721,21.737-21.721h210.995c12.012,0,21.734,9.726,21.734,21.721v102.084"/>
	<path id="path4070" fill="none" stroke="#000000" stroke-width="0.25" stroke-miterlimit="3.864" d="M408.382,417.991v-42.902
		l5.396-6.078 M589.479,417.991v-42.902l-6.421-4.059 M390.747,317.396h74.981l3.36-7.114h61.505l4.061,6.079h76.085
		c4.063,1.022,6.423,21.211,6.423,21.211c-5.463,6.958-81.736,12.241-115.814,12.241c-37.963,0-115.667-6.575-115.667-14.689
		L390.747,317.396z"/>
	<path id="path4072" fill="#EDECEC" stroke="#000000" stroke-width="0.25" d="M635.662,456.504h-99.975v-4.063h-64.925v4.063
		h-103.02v-12.498h28.141v-24.998h21.951v9.447h59.473c2.96,7.289,16.561,12.422,24.906,12.422c8.341,0,21.94-5.145,24.897-12.422
		h55.943v-9.447h21.963v24.998h30.644L635.662,456.504L635.662,456.504z"/>
	<path id="path4074" fill="none" stroke="#000000" stroke-width="0.25" stroke-miterlimit="3.864" d="M635.662,456.504h-99.975
		v-4.063h-64.925v4.063h-103.02v-12.498h28.141v-24.998h21.951v9.447h59.473c2.96,7.289,16.561,12.422,24.906,12.422
		c8.341,0,21.94-5.145,24.897-12.422h55.943v-9.447h21.963v24.998h30.644L635.662,456.504L635.662,456.504z"/>
	<polygon id="polygon4076" fill="#EDECEC" stroke="#000000" stroke-width="0.25" points="516.744,384.545 516.744,378.458 
		485.65,378.458 485.65,384.545 413.773,384.545 413.773,364.952 481.594,364.952 485.65,359.202 496.125,359.202 496.125,362.708 
		507.611,362.708 507.611,359.202 517.76,359.202 522.143,364.952 584.401,364.952 584.401,384.545 	"/>
	<polygon id="polygon4078" fill="none" stroke="#000000" stroke-width="0.25" stroke-miterlimit="3.864" points="516.744,384.545 
		516.744,378.458 485.65,378.458 485.65,384.545 413.773,384.545 413.773,364.952 481.594,364.952 485.65,359.202 496.125,359.202 
		496.125,362.708 507.611,362.708 507.611,359.202 517.76,359.202 522.143,364.952 584.401,364.952 584.401,384.545 	"/>
	<path id="path4080" fill="none" stroke="#000000" stroke-width="0.25" stroke-miterlimit="3.864" d="M543.52,428.458v-43.916
		 M459.354,428.458v-43.916 M417.841,419.004v-34.459 M583.059,424.073v-39.527"/>
	<g>
		<path fill="#CBCBCB" stroke="#000000" stroke-width="0.25" d="M491.624,415.811c-0.305,0.186-0.651,0.313-1.044,0.313h-21.372
			c-0.386,0-0.748-0.121-1.037-0.313c-0.25,0.186-0.546,0.313-0.865,0.313c-0.859,0-1.57-0.846-1.57-1.9V396.98
			c0-1.017,0.657-1.851,1.487-1.896v-2.397c0-1.054,0.845-1.896,1.901-1.896h21.554c1.055,0,1.896,0.842,1.896,1.896v2.397
			c0.827,0.063,1.469,0.886,1.469,1.896v17.243c0,1.061-0.7,1.9-1.56,1.9C492.161,416.125,491.867,416,491.624,415.811"/>
		<path fill="#CBCBCB" stroke="#000000" stroke-width="0.25" d="M467.216,392.679c0-1.058,0.843-1.904,1.901-1.904h21.55
			c1.058,0,1.9,0.853,1.9,1.904v19.636c0,1.049-0.844,1.898-1.9,1.898h-21.55c-1.051,0-1.901-0.85-1.901-1.898V392.679
			L467.216,392.679z"/>
		<path fill="#CBCBCB" stroke="#000000" stroke-width="0.25" stroke-miterlimit="3.864" d="M467.216,392.679
			c0-1.058,0.843-1.904,1.901-1.904h21.55c1.058,0,1.9,0.853,1.9,1.904v19.636c0,1.049-0.844,1.898-1.9,1.898h-21.55
			c-1.051,0-1.901-0.85-1.901-1.898V392.679L467.216,392.679z"/>
		<path fill="#CBCBCB" stroke="#000000" stroke-width="0.25" d="M490.907,396.973c0-1.049,0.707-1.895,1.581-1.895
			c0.875,0,1.563,0.848,1.563,1.895v17.244c0,1.055-0.703,1.896-1.563,1.896c-0.868,0-1.581-0.846-1.581-1.896V396.973z"/>
		<path fill="#CBCBCB" stroke="#000000" stroke-width="0.25" stroke-miterlimit="3.864" d="M490.907,396.973
			c0-1.049,0.707-1.895,1.581-1.895c0.875,0,1.563,0.848,1.563,1.895v17.244c0,1.055-0.703,1.896-1.563,1.896
			c-0.868,0-1.581-0.846-1.581-1.896V396.973z"/>
		<path fill="#CBCBCB" stroke="#000000" stroke-width="0.25" d="M465.729,396.973c0-1.049,0.699-1.895,1.571-1.895
			c0.871,0,1.569,0.848,1.569,1.895v17.244c0,1.055-0.7,1.896-1.569,1.896c-0.876,0-1.571-0.846-1.571-1.896V396.973z"/>
		<path fill="#CBCBCB" stroke="#000000" stroke-width="0.25" stroke-miterlimit="3.864" d="M465.729,396.973
			c0-1.049,0.699-1.895,1.571-1.895c0.871,0,1.569,0.848,1.569,1.895v17.244c0,1.055-0.7,1.896-1.569,1.896
			c-0.876,0-1.571-0.846-1.571-1.896V396.973z"/>
		<path fill="#CBCBCB" stroke="#000000" stroke-width="0.25" d="M467.298,412.047c0-1.057,0.852-1.902,1.905-1.902h21.364
			c1.05,0,1.9,0.855,1.9,1.902v2.17c0,1.061-0.854,1.9-1.9,1.9h-21.364c-1.056,0-1.905-0.846-1.905-1.9V412.047L467.298,412.047z"/>
		<path fill="#CBCBCB" stroke="#000000" stroke-width="0.25" stroke-miterlimit="3.864" d="M467.298,412.047
			c0-1.057,0.852-1.902,1.905-1.902h21.364c1.05,0,1.9,0.855,1.9,1.902v2.17c0,1.061-0.854,1.9-1.9,1.9h-21.364
			c-1.056,0-1.905-0.846-1.905-1.9V412.047L467.298,412.047z"/>
	</g>
	<g>
		<path fill="#CECBC6" stroke="#000000" stroke-width="0.25" d="M534.211,415.811c-0.307,0.186-0.666,0.313-1.043,0.313h-21.391
			c-0.362,0-0.744-0.121-1.032-0.313c-0.235,0.186-0.538,0.313-0.853,0.313c-0.873,0-1.578-0.846-1.578-1.9V396.98
			c0-1.017,0.67-1.851,1.486-1.896v-2.397c0-1.054,0.854-1.896,1.904-1.896h21.547c1.055,0,1.906,0.842,1.906,1.896v2.397
			c0.817,0.063,1.465,0.886,1.465,1.896v17.243c0,1.061-0.701,1.9-1.559,1.9C534.754,416.125,534.456,416,534.211,415.811"/>
		<path fill="#CECBC6" stroke="#000000" stroke-width="0.25" d="M509.805,392.679c0-1.058,0.854-1.904,1.902-1.904h21.547
			c1.052,0,1.908,0.853,1.908,1.904v19.636c0,1.049-0.863,1.898-1.908,1.898h-21.547c-1.051,0-1.902-0.85-1.902-1.898V392.679
			L509.805,392.679z"/>
		<path fill="#CECBC6" stroke="#000000" stroke-width="0.25" stroke-miterlimit="3.864" d="M509.805,392.679
			c0-1.058,0.854-1.904,1.902-1.904h21.547c1.052,0,1.908,0.853,1.908,1.904v19.636c0,1.049-0.863,1.898-1.908,1.898h-21.547
			c-1.051,0-1.902-0.85-1.902-1.898V392.679L509.805,392.679z"/>
		<path fill="#CECBC6" stroke="#000000" stroke-width="0.25" d="M533.504,396.973c0-1.049,0.702-1.895,1.563-1.895
			c0.87,0,1.574,0.848,1.574,1.895v17.244c0,1.055-0.701,1.896-1.574,1.896c-0.861,0-1.563-0.846-1.563-1.896V396.973z"/>
		<path fill="#CECBC6" stroke="#000000" stroke-width="0.25" stroke-miterlimit="3.864" d="M533.504,396.973
			c0-1.049,0.702-1.895,1.563-1.895c0.87,0,1.574,0.848,1.574,1.895v17.244c0,1.055-0.701,1.896-1.574,1.896
			c-0.861,0-1.563-0.846-1.563-1.896V396.973z"/>
		<path fill="#CECBC6" stroke="#000000" stroke-width="0.25" d="M508.318,396.973c0-1.049,0.699-1.895,1.572-1.895
			c0.865,0,1.563,0.848,1.563,1.895v17.244c0,1.055-0.692,1.896-1.563,1.896c-0.877,0-1.572-0.846-1.572-1.896V396.973z"/>
		<path fill="#CECBC6" stroke="#000000" stroke-width="0.25" stroke-miterlimit="3.864" d="M508.318,396.973
			c0-1.049,0.699-1.895,1.572-1.895c0.865,0,1.563,0.848,1.563,1.895v17.244c0,1.055-0.692,1.896-1.563,1.896
			c-0.877,0-1.572-0.846-1.572-1.896V396.973z"/>
		<path fill="#CECBC6" stroke="#000000" stroke-width="0.25" d="M509.886,412.047c0-1.057,0.848-1.902,1.894-1.902h21.393
			c1.047,0,1.897,0.855,1.897,1.902v2.17c0,1.061-0.848,1.9-1.897,1.9h-21.393c-1.031,0-1.894-0.846-1.894-1.9V412.047
			L509.886,412.047z"/>
		<path fill="#CECBC6" stroke="#000000" stroke-width="0.25" stroke-miterlimit="3.864" d="M509.886,412.047
			c0-1.057,0.848-1.902,1.894-1.902h21.393c1.047,0,1.897,0.855,1.897,1.902v2.17c0,1.061-0.848,1.9-1.897,1.9h-21.393
			c-1.031,0-1.894-0.846-1.894-1.9V412.047L509.886,412.047z"/>
	</g>
	<g>
		<path fill="#CECBC6" stroke="#000000" stroke-width="0.25" d="M449.031,415.811c-0.292,0.186-0.661,0.313-1.042,0.313H426.6
			c-0.376,0-0.741-0.121-1.03-0.313c-0.241,0.186-0.557,0.313-0.854,0.313c-0.869,0-1.575-0.846-1.575-1.9V396.98
			c0-1.017,0.661-1.851,1.483-1.896v-2.397c0-1.054,0.854-1.896,1.909-1.896h21.54c1.058,0,1.898,0.842,1.898,1.896v2.397
			c0.839,0.063,1.484,0.886,1.484,1.896v17.243c0,1.061-0.698,1.9-1.565,1.9C449.573,416.125,449.281,416,449.031,415.811"/>
		<path fill="#CECBC6" stroke="#000000" stroke-width="0.25" d="M424.622,392.679c0-1.058,0.855-1.904,1.907-1.904h21.542
			c1.059,0,1.907,0.853,1.907,1.904v19.636c0,1.049-0.854,1.898-1.907,1.898h-21.543c-1.061,0-1.905-0.85-1.905-1.898
			L424.622,392.679L424.622,392.679z"/>
		<path fill="#CECBC6" stroke="#000000" stroke-width="0.25" stroke-miterlimit="3.864" d="M424.622,392.679
			c0-1.058,0.855-1.904,1.907-1.904h21.542c1.059,0,1.907,0.853,1.907,1.904v19.636c0,1.049-0.854,1.898-1.907,1.898h-21.543
			c-1.061,0-1.905-0.85-1.905-1.898L424.622,392.679L424.622,392.679z"/>
		<path fill="#CECBC6" stroke="#000000" stroke-width="0.25" d="M448.322,396.973c0-1.049,0.705-1.895,1.565-1.895
			c0.862,0,1.578,0.848,1.578,1.895v17.244c0,1.055-0.704,1.896-1.578,1.896c-0.854,0-1.565-0.846-1.565-1.896V396.973z"/>
		<path fill="#CECBC6" stroke="#000000" stroke-width="0.25" stroke-miterlimit="3.864" d="M448.322,396.973
			c0-1.049,0.705-1.895,1.565-1.895c0.862,0,1.578,0.848,1.578,1.895v17.244c0,1.055-0.704,1.896-1.578,1.896
			c-0.854,0-1.565-0.846-1.565-1.896V396.973z"/>
		<path fill="#CECBC6" stroke="#000000" stroke-width="0.25" d="M423.142,396.973c0-1.049,0.703-1.895,1.57-1.895
			c0.862,0,1.565,0.848,1.565,1.895v17.244c0,1.055-0.703,1.896-1.565,1.896c-0.869,0-1.57-0.846-1.57-1.896V396.973z"/>
		<path fill="#CECBC6" stroke="#000000" stroke-width="0.25" stroke-miterlimit="3.864" d="M423.142,396.973
			c0-1.049,0.703-1.895,1.57-1.895c0.862,0,1.565,0.848,1.565,1.895v17.244c0,1.055-0.703,1.896-1.565,1.896
			c-0.869,0-1.57-0.846-1.57-1.896V396.973z"/>
		<path fill="#CECBC6" stroke="#000000" stroke-width="0.25" d="M424.706,412.047c0-1.057,0.844-1.902,1.895-1.902h21.388
			c1.052,0,1.898,0.855,1.898,1.902v2.17c0,1.061-0.842,1.9-1.898,1.9h-21.388c-1.05,0-1.895-0.846-1.895-1.9V412.047z"/>
		<path fill="#CECBC6" stroke="#000000" stroke-width="0.25" stroke-miterlimit="3.864" d="M424.706,412.047
			c0-1.057,0.844-1.902,1.895-1.902h21.388c1.052,0,1.898,0.855,1.898,1.902v2.17c0,1.061-0.842,1.9-1.898,1.9h-21.388
			c-1.05,0-1.895-0.846-1.895-1.9V412.047z"/>
	</g>
	<g>
		<path fill="#CECBC6" stroke="#000000" stroke-width="0.25" d="M576.8,415.811c-0.3,0.186-0.659,0.313-1.049,0.313h-21.372
			c-0.389,0-0.747-0.121-1.042-0.313c-0.254,0.186-0.547,0.313-0.864,0.313c-0.859,0-1.563-0.846-1.563-1.9V396.98
			c0-1.017,0.648-1.851,1.488-1.896v-2.397c0-1.054,0.842-1.896,1.893-1.896h21.558c1.05,0,1.899,0.842,1.899,1.896v2.397
			c0.826,0.063,1.481,0.886,1.481,1.896v17.243c0,1.061-0.695,1.9-1.565,1.9C577.344,416.125,577.047,416,576.8,415.811"/>
		<path fill="#CECBC6" stroke="#000000" stroke-width="0.25" d="M552.393,392.679c0-1.058,0.845-1.904,1.896-1.904h21.554
			c1.052,0,1.9,0.853,1.9,1.904v19.636c0,1.049-0.854,1.898-1.9,1.898h-21.552c-1.05,0-1.898-0.85-1.898-1.898V392.679
			L552.393,392.679z"/>
		<path fill="#CECBC6" stroke="#000000" stroke-width="0.25" stroke-miterlimit="3.864" d="M552.393,392.679
			c0-1.058,0.845-1.904,1.896-1.904h21.554c1.052,0,1.9,0.853,1.9,1.904v19.636c0,1.049-0.854,1.898-1.9,1.898h-21.552
			c-1.05,0-1.898-0.85-1.898-1.898V392.679L552.393,392.679z"/>
		<path fill="#CECBC6" stroke="#000000" stroke-width="0.25" d="M576.09,396.973c0-1.049,0.706-1.895,1.579-1.895
			c0.876,0,1.567,0.848,1.567,1.895v17.244c0,1.055-0.703,1.896-1.567,1.896c-0.866,0-1.579-0.846-1.579-1.896V396.973z"/>
		<path fill="#CECBC6" stroke="#000000" stroke-width="0.25" stroke-miterlimit="3.864" d="M576.09,396.973
			c0-1.049,0.706-1.895,1.579-1.895c0.876,0,1.567,0.848,1.567,1.895v17.244c0,1.055-0.703,1.896-1.567,1.896
			c-0.866,0-1.579-0.846-1.579-1.896V396.973z"/>
		<path fill="#CECBC6" stroke="#000000" stroke-width="0.25" d="M550.906,396.973c0-1.049,0.699-1.895,1.563-1.895
			c0.865,0,1.573,0.848,1.573,1.895v17.244c0,1.055-0.7,1.896-1.573,1.896c-0.869,0-1.563-0.846-1.563-1.896V396.973z"/>
		<path fill="#CECBC6" stroke="#000000" stroke-width="0.25" stroke-miterlimit="3.864" d="M550.906,396.973
			c0-1.049,0.699-1.895,1.563-1.895c0.865,0,1.573,0.848,1.573,1.895v17.244c0,1.055-0.7,1.896-1.573,1.896
			c-0.869,0-1.563-0.846-1.563-1.896V396.973z"/>
		<path fill="#CECBC6" stroke="#000000" stroke-width="0.25" d="M552.477,412.047c0-1.057,0.854-1.902,1.904-1.902h21.369
			c1.06,0,1.904,0.855,1.904,1.902v2.17c0,1.061-0.848,1.9-1.904,1.9h-21.371c-1.053,0-1.905-0.846-1.905-1.9L552.477,412.047
			L552.477,412.047z"/>
		<path fill="#CECBC6" stroke="#000000" stroke-width="0.25" stroke-miterlimit="3.864" d="M552.477,412.047
			c0-1.057,0.854-1.902,1.904-1.902h21.369c1.06,0,1.904,0.855,1.904,1.902v2.17c0,1.061-0.848,1.9-1.904,1.9h-21.371
			c-1.053,0-1.905-0.846-1.905-1.9L552.477,412.047L552.477,412.047z"/>
	</g>
</g>
<path id="24" fill="#CECBC6" stroke="#000000" stroke-width="0.25" stroke-miterlimit="3.864" d="M303.414,57.287
	c-0.464-1.101,0.047-2.366,1.147-2.834l22.508-9.558c1.099-0.469,2.362,0.046,2.833,1.146l8.709,20.518
	c0.468,1.095-0.046,2.365-1.146,2.835l-22.506,9.552c-1.099,0.462-2.368-0.041-2.835-1.144L303.414,57.287z M308.665,73.972
	c0.469,1.096,1.582,1.674,2.482,1.286l0,0c0.907-0.384,1.263-1.586,0.795-2.688l-7.647-18.01c-0.468-1.101-1.582-1.679-2.481-1.294
	c-0.904,0.381-1.259,1.587-0.792,2.684L308.665,73.972z M334.978,62.8c0.465,1.099,1.578,1.675,2.482,1.294
	c0.903-0.384,1.259-1.59,0.795-2.685l-7.645-18.018c-0.467-1.095-1.583-1.677-2.484-1.292c-0.903,0.385-1.26,1.586-0.793,2.685
	L334.978,62.8z M303.626,57.524c0.463,1.099,1.733,1.615,2.832,1.147l22.33-9.481c1.099-0.467,1.611-1.735,1.146-2.837l-0.964-2.266
	c-0.463-1.099-1.733-1.611-2.835-1.145l-22.326,9.479c-1.101,0.467-1.618,1.74-1.147,2.838L303.626,57.524z"/>
<path id="8" fill="#CECBC6" stroke="#000000" stroke-width="0.25" stroke-miterlimit="3.864" d="M357.858,158.895
	c-0.486-1.092,0.001-2.365,1.095-2.851l22.336-9.946c1.089-0.49,2.364,0.001,2.85,1.095l9.067,20.356
	c0.484,1.088-0.007,2.37-1.101,2.856l-22.338,9.945c-1.087,0.486-2.364-0.001-2.853-1.095L357.858,158.895z M363.395,175.489
	c0.486,1.085,1.614,1.651,2.508,1.245l0,0c0.895-0.396,1.23-1.605,0.75-2.7l-7.962-17.875c-0.49-1.093-1.61-1.651-2.511-1.251
	c-0.891,0.396-1.229,1.615-0.747,2.702L363.395,175.489z M389.509,163.861c0.484,1.086,1.612,1.647,2.505,1.249
	c0.897-0.396,1.232-1.61,0.747-2.697l-7.958-17.884c-0.486-1.083-1.609-1.647-2.507-1.251c-0.896,0.403-1.232,1.611-0.747,2.702
	L389.509,163.861z M358.068,159.13c0.484,1.088,1.763,1.586,2.852,1.099l22.161-9.87c1.09-0.487,1.581-1.761,1.099-2.854
	l-1.008-2.252c-0.487-1.09-1.762-1.576-2.854-1.09l-22.159,9.86c-1.092,0.489-1.583,1.771-1.101,2.861L358.068,159.13z"/>
<path id="14" fill="#CECBC6" stroke="#000000" stroke-width="0.25" stroke-miterlimit="3.864" d="M677.747,211.529
	c-0.674,0.99-2.015,1.253-3.001,0.585l-20.273-13.677c-0.986-0.668-1.25-2.005-0.58-2.997l12.459-18.481
	c0.675-0.991,2.018-1.251,3-0.581l20.274,13.678c0.995,0.667,1.253,2.016,0.582,2.999L677.747,211.529z M692.811,192.2
	c0.67-0.989,0.557-2.235-0.268-2.787c-0.814-0.545-2.018-0.188-2.681,0.795l-10.946,16.229c-0.666,0.99-0.549,2.238,0.271,2.784
	c0.813,0.552,2.016,0.198,2.682-0.797L692.811,192.2z M669.118,176.214c0.67-0.99,0.549-2.238-0.272-2.787
	c-0.813-0.549-2.014-0.186-2.682,0.799l-10.945,16.224c-0.661,0.99-0.547,2.234,0.271,2.784h0.007
	c0.813,0.551,2.018,0.192,2.678-0.795L669.118,176.214z M691.341,191.206c0.664-0.995,0.401-2.335-0.581-3.003l-20.107-13.565
	c-0.994-0.669-2.344-0.407-3.005,0.58l-1.372,2.045c-0.674,0.991-0.411,2.335,0.578,2.998l20.111,13.567
	c0.988,0.673,2.331,0.41,3.003-0.58L691.341,191.206z"/>
<path id="31" fill="#CECBC6" stroke="#000000" stroke-width="0.25" stroke-miterlimit="3.864" d="M698.172,91.95
	c-0.52,1.071-1.813,1.52-2.891,1.001l-21.977-10.723c-1.068-0.522-1.52-1.817-1.002-2.889l9.77-20.033
	c0.52-1.071,1.818-1.52,2.895-0.997l21.978,10.721c1.069,0.52,1.519,1.816,0.999,2.887L698.172,91.95z M710.402,70.717
	c0.518-1.072,0.229-2.295-0.649-2.729c-0.887-0.428-2.026,0.092-2.55,1.161l-8.571,17.594c-0.522,1.072-0.229,2.291,0.652,2.721
	c0.885,0.436,2.021-0.087,2.54-1.159L710.402,70.717z M684.717,58.183c0.52-1.071,0.229-2.292-0.66-2.723
	c-0.885-0.43-2.018,0.093-2.544,1.163l-8.575,17.589c-0.518,1.07-0.226,2.292,0.654,2.724h0.004
	c0.887,0.429,2.021-0.091,2.537-1.165L684.717,58.183z M708.805,69.936c0.521-1.072,0.074-2.368-1.002-2.891L686.002,56.41
	c-1.067-0.525-2.369-0.079-2.89,0.992l-1.075,2.214c-0.524,1.071-0.078,2.37,0.996,2.891l21.803,10.636
	c1.068,0.526,2.364,0.081,2.892-0.993L708.805,69.936z"/>
<text transform="matrix(4.489659e-011 -1 1 4.489659e-011 11.5938 333.9517)" font-family="'Myriad-Roman'" font-size="48">Senadores</text>


</svg>
